<svg width="534" height="628" viewBox="0 0 534 628" fill="none" xmlns="http://www.w3.org/2000/svg">
<g clip-path="url(#clip0_27_1337)">
<g opacity="0.57">
<path d="M32.7976 187.065C23.2383 192.504 15.492 205.854 15.6569 216.896L16.3161 435.441C16.3161 446.483 24.0624 450.769 33.6217 445.33L353.363 260.737C362.922 255.298 370.668 241.948 370.503 230.906L370.009 12.1962C370.009 1.1536 362.263 -3.13159 352.703 2.3073L32.7976 187.065Z" fill="url(#paint0_linear_27_1337)"/>
</g>
<g opacity="0.57">
<path d="M17.3054 187.065C7.74615 192.504 -0.00012207 205.854 0.164703 216.896L0.823944 435.441C0.823944 446.483 8.57025 450.769 18.1295 445.33L337.87 260.737C347.43 255.298 355.176 241.948 355.011 230.906L354.352 12.1962C354.352 1.1536 346.606 -3.13159 337.046 2.3073L17.3054 187.065Z" fill="url(#paint1_linear_27_1337)"/>
</g>
<path opacity="0.57" d="M501.861 501.202C502.025 501.037 502.025 501.202 501.861 501.202C505.816 498.895 512.244 498.895 516.035 501.037C518.507 502.356 519.496 504.334 518.837 506.147V506.311C518.837 506.476 518.837 506.476 518.672 506.641C518.672 506.641 518.672 506.641 518.672 506.806C518.672 506.971 518.507 506.971 518.507 507.136C518.507 507.3 518.342 507.465 518.177 507.465C518.012 507.63 518.012 507.795 517.848 507.795C517.518 508.289 516.859 508.619 516.364 508.948C516.364 508.948 516.364 508.948 516.199 508.948C515.705 509.278 515.211 509.443 514.716 509.608C514.716 509.608 514.716 509.608 514.551 509.608C514.222 509.773 513.892 509.773 513.727 509.937H513.562C513.398 509.937 513.233 510.102 513.068 510.102C513.233 510.102 513.398 510.102 513.562 509.937C513.398 509.937 513.068 510.102 512.903 510.102H512.738C512.574 510.102 512.574 510.102 512.409 510.102H512.574C512.409 510.102 512.079 510.102 511.914 510.267H512.079C511.914 510.267 511.914 510.267 511.749 510.267H511.585C511.255 510.267 511.09 510.267 510.761 510.432C510.761 510.432 510.761 510.432 510.596 510.432C507.629 510.597 504.498 510.102 502.19 508.784C498.07 507.136 498.07 503.51 501.861 501.202Z" fill="white"/>
<path opacity="0.57" d="M354.187 627.121C399.511 627.121 442.033 618.221 474.172 601.904C506.64 585.423 524.605 563.337 524.77 539.769C524.77 516.2 506.97 494.115 474.666 477.304C442.363 460.658 399.511 451.428 353.692 451.263C353.363 451.263 353.033 451.263 352.703 451.263C307.379 451.263 264.857 460.163 232.718 476.48C200.25 492.961 182.285 515.047 182.12 538.615C182.12 562.184 199.92 584.269 232.224 601.08C264.527 617.726 307.379 626.956 353.198 627.121C353.527 627.121 353.857 627.121 354.187 627.121ZM352.703 452.582C353.033 452.582 353.363 452.582 353.692 452.582C399.181 452.747 441.868 461.976 474.007 478.458C505.981 494.939 523.616 516.695 523.452 539.769C523.452 562.843 505.651 584.434 473.677 600.75C441.539 617.067 398.687 625.967 353.198 625.802C307.709 625.637 265.022 616.408 232.883 599.926C200.909 583.445 183.274 561.689 183.438 538.615C183.438 515.541 201.238 493.95 233.213 477.634C265.187 461.482 307.544 452.582 352.703 452.582Z" fill="url(#paint2_linear_27_1337)"/>
<path opacity="0.57" d="M354.186 617.726C438.077 617.726 506.31 582.785 506.31 539.769C506.31 518.673 490.488 498.895 461.48 484.061C432.638 469.228 394.401 460.987 353.527 460.823C353.197 460.823 352.867 460.823 352.538 460.823C312.158 460.823 274.086 468.734 245.408 483.402C216.401 498.071 200.414 517.848 200.249 538.78C200.249 559.876 216.071 579.654 245.078 594.487C273.921 609.321 312.158 617.561 353.032 617.726C353.527 617.726 353.856 617.726 354.186 617.726ZM352.703 462.141C353.032 462.141 353.362 462.141 353.691 462.141C394.236 462.306 432.473 470.382 460.986 485.215C489.499 499.884 505.156 519.167 505.156 539.769C504.992 582.126 437.417 616.573 354.186 616.573C353.856 616.573 353.527 616.573 353.197 616.573C312.653 616.408 274.416 608.332 245.903 593.498C217.39 578.83 201.732 559.382 201.732 538.78C201.732 518.178 217.554 498.895 246.232 484.391C274.745 470.052 312.488 462.141 352.703 462.141Z" fill="url(#paint3_linear_27_1337)"/>
<path opacity="0.57" d="M179.153 546.691C181.955 545.043 186.405 545.043 189.042 546.691C190.69 547.68 191.349 548.998 191.02 550.317C191.02 550.317 191.02 550.317 191.02 550.481C191.02 550.481 191.02 550.646 190.855 550.646C190.855 550.646 190.855 550.646 190.855 550.811C190.855 550.811 190.855 550.976 190.69 550.976C190.69 551.141 190.525 551.141 190.525 551.305C190.525 551.47 190.36 551.47 190.36 551.635C190.031 551.965 189.701 552.13 189.371 552.459C189.042 552.624 188.712 552.789 188.218 552.954C188.053 552.954 187.723 553.118 187.559 553.118H187.394C187.229 553.118 187.229 553.118 187.064 553.283C187.229 553.283 187.229 553.283 187.394 553.283C187.229 553.283 187.064 553.283 186.899 553.448H186.734C186.57 553.448 186.405 553.448 186.24 553.448C186.24 553.448 186.24 553.448 186.075 553.448C185.91 553.448 185.746 553.448 185.416 553.448C183.273 553.613 181.131 553.283 179.647 552.294C176.516 550.976 176.516 548.339 179.153 546.691Z" fill="white"/>
<g opacity="0.35">
<path d="M180.802 514.717L223.653 539.604C225.137 540.428 226.95 540.428 228.598 539.604L271.779 514.717C272.768 514.222 272.768 512.739 271.779 512.244L229.092 487.357C227.444 486.369 225.466 486.369 223.983 487.357L180.966 512.244C179.813 512.739 179.813 514.057 180.802 514.717Z" fill="url(#paint4_linear_27_1337)"/>
</g>
<g opacity="0.35">
<path d="M127.072 526.089L151.629 540.263C152.453 540.757 153.607 540.757 154.431 540.263L179.153 526.089C179.648 525.759 179.648 524.935 179.153 524.605L154.76 510.431C153.772 509.937 152.783 509.937 151.794 510.431L127.236 524.605C126.577 524.935 126.577 525.759 127.072 526.089Z" fill="url(#paint5_linear_27_1337)"/>
</g>
<path d="M117.842 439.891V443.682C117.842 445.824 120.15 447.308 122.128 446.154L139.763 435.935C140.587 435.441 141.246 434.452 141.246 433.463V429.672C141.246 427.53 138.939 426.046 136.961 427.2L119.326 437.419C118.337 437.913 117.842 438.902 117.842 439.891Z" fill="#FF6600"/>
<path d="M61.9702 490.489V494.28C61.9702 496.422 64.2776 497.906 66.2554 496.752L139.763 454.559C140.587 454.065 141.246 453.076 141.246 452.087V448.296C141.246 446.154 138.939 444.67 136.961 445.824L63.4535 488.017C62.4646 488.511 61.9702 489.5 61.9702 490.489Z" fill="#FF6600"/>
<g opacity="0.53">
<path d="M92.1315 510.267V514.058C92.1315 516.2 94.4389 517.684 96.4167 516.53L139.598 491.808C140.422 491.313 141.082 490.324 141.082 489.335V485.545C141.082 483.402 138.774 481.919 136.796 483.072L93.6148 507.795C92.7908 508.289 92.1315 509.278 92.1315 510.267Z" fill="#FF6600"/>
</g>
<path d="M73.3424 502.52V506.311C73.3424 508.454 75.6498 509.937 77.6276 508.783L139.763 473.183C140.587 472.689 141.246 471.7 141.246 470.711V466.92C141.246 464.778 138.939 463.295 136.961 464.448L74.8257 500.048C73.8368 500.543 73.3424 501.532 73.3424 502.52Z" fill="#FF6600"/>
<path d="M365.889 12.1966C366.054 12.0318 366.218 12.0318 366.383 11.8669C366.548 11.7021 366.878 11.5373 367.043 11.5373C367.207 11.3725 367.537 11.3725 367.702 11.2077C367.867 11.0429 368.196 11.0429 368.361 10.878C368.526 10.7132 368.855 10.7132 369.02 10.5484H369.185C369.35 10.5484 369.515 10.3836 369.68 10.3836C369.844 10.3836 370.174 10.2188 370.339 10.2188C370.504 10.2188 370.833 10.054 370.998 10.054C371.328 10.054 371.493 9.88916 371.822 9.88916C371.987 9.88916 372.152 9.88916 372.317 9.88916H372.481C372.811 9.88916 372.976 9.88916 373.305 9.88916C373.635 9.88916 373.965 9.88916 374.13 9.88916C374.459 9.88916 374.789 9.88916 375.118 10.054C375.448 10.054 375.943 10.2188 376.272 10.3836C376.767 10.5484 377.261 10.7132 377.591 11.0429L388.963 17.6355C388.139 17.141 387.315 16.8114 386.491 16.6466C385.502 16.4818 384.678 16.4818 383.524 16.4818C382.535 16.6466 381.381 16.8114 380.393 17.141C379.239 17.4706 378.085 18.1299 376.931 18.7892L58.6739 202.723L47.3017 196.13L365.889 12.1966Z" fill="url(#paint6_linear_27_1337)"/>
<path d="M30.161 225.137C30.161 224.808 30.161 224.643 30.161 224.313C30.161 223.984 30.161 223.819 30.161 223.489C30.161 223.16 30.1611 222.995 30.3259 222.665C30.3259 222.336 30.3259 222.171 30.4907 221.841C30.4907 221.511 30.6555 221.347 30.6555 221.017C30.6555 220.687 30.8203 220.358 30.8203 220.193C30.8203 219.863 30.9851 219.534 30.9851 219.369C30.9851 219.039 31.1499 218.71 31.1499 218.38C31.1499 218.215 31.3148 217.886 31.3148 217.721V217.556C31.4796 217.226 31.4796 216.897 31.6444 216.732C31.8092 216.402 31.8092 216.073 31.974 215.908C32.1388 215.578 32.1388 215.413 32.3037 215.084C32.4685 214.754 32.4684 214.589 32.6333 214.26C32.7981 214.095 32.7981 213.765 32.9629 213.6V213.436C33.1277 213.106 33.2926 212.941 33.2926 212.611C33.4574 212.282 33.6222 211.952 33.787 211.787C33.9518 211.458 34.1166 211.128 34.2814 210.799C34.4462 210.469 34.6111 210.139 34.9407 209.645C34.9407 209.645 34.9407 209.48 35.1055 209.48L35.2703 209.315C35.5999 208.656 36.0944 207.997 36.5889 207.337C36.9185 206.843 37.2481 206.349 37.7425 205.854C38.0722 205.524 38.237 205.195 38.5666 204.865C38.7314 204.536 39.061 204.371 39.2259 204.041C39.3907 203.711 39.7203 203.547 39.8852 203.217C40.05 202.887 40.3796 202.723 40.5444 202.558L40.7092 202.393C40.874 202.228 41.0388 202.063 41.2037 201.899C41.3685 201.734 41.6981 201.404 41.8629 201.239C42.1925 201.074 42.3574 200.745 42.687 200.58C43.0166 200.415 43.1814 200.086 43.5111 199.921C43.6759 199.756 43.8407 199.756 43.8407 199.591C43.8407 199.591 43.8407 199.591 44.0055 199.591C44.1703 199.591 44.1703 199.426 44.3351 199.426C44.6648 199.261 44.8296 199.097 45.1592 198.932C45.4888 198.767 45.6536 198.602 45.9833 198.437C46.1481 198.273 46.4777 198.108 46.6425 197.943C46.8073 197.778 47.137 197.613 47.3018 197.449C47.3018 197.449 47.4666 197.449 47.4666 197.284L58.8389 203.876C57.6852 204.536 56.5314 205.36 55.3777 206.184C55.3777 206.184 55.3777 206.184 55.2129 206.184C54.0592 207.008 53.0703 207.997 52.0814 209.15C50.1037 211.293 48.2907 213.765 46.6425 216.402C46.6425 216.402 46.6426 216.567 46.4778 216.567C45.6537 217.886 44.9944 219.204 44.5 220.523C43.8407 221.841 43.3463 223.324 43.0166 224.808C42.5222 226.291 42.1925 227.61 42.0277 229.093C41.8629 230.576 41.6981 231.895 41.6981 233.213L42.3574 450.769C42.3574 452.087 42.5222 453.406 42.687 454.395C42.687 454.395 42.687 454.395 42.687 454.56C42.8518 455.713 43.1814 456.702 43.6759 457.526C44.0055 458.35 44.4999 458.845 44.9944 459.504C45.1592 459.669 45.324 459.834 45.4889 460.163C45.9833 460.823 46.6426 461.317 47.3018 461.647L35.9296 455.054C35.2703 454.725 34.6111 454.065 34.1166 453.571C33.9518 453.406 33.787 453.241 33.6222 452.912C33.4573 452.582 33.1277 452.417 32.9629 452.087C32.7981 451.758 32.4685 451.263 32.3037 450.934C32.1388 450.604 31.974 450.439 31.974 450.11C31.8092 449.78 31.8092 449.45 31.6444 449.286C31.4796 448.956 31.4796 448.626 31.4796 448.462C31.4796 448.297 31.4796 448.132 31.4796 448.132C31.4796 448.132 31.4796 448.132 31.4796 447.967C31.4796 447.802 31.4796 447.802 31.4796 447.637C31.4796 447.308 31.3148 447.143 31.3148 446.813C31.3148 446.484 31.3148 446.319 31.1499 445.989C31.1499 445.66 31.1499 445.495 31.1499 445.165C31.1499 444.836 31.1499 444.671 31.1499 444.341L30.4907 226.786C30.1611 225.632 30.161 225.302 30.161 225.137Z" fill="url(#paint7_linear_27_1337)"/>
<path d="M58.6744 202.723C49.1151 208.162 41.5337 221.512 41.5337 232.389L42.1929 449.945C42.1929 460.823 49.9392 465.273 59.4985 459.834L377.921 276.065C387.48 270.626 395.062 257.276 395.062 246.399L394.402 28.843C394.402 17.9652 386.656 13.5152 377.097 18.9541L58.6744 202.723Z" fill="#343996"/>
<path d="M71.6945 205.689C62.9594 210.798 55.8723 222.995 55.8723 233.048L56.3668 433.134C56.3668 443.187 63.4538 447.143 72.189 442.199L365.065 273.098C373.8 267.989 380.887 255.793 380.887 245.739L380.393 45.654C380.393 35.6003 373.306 31.6447 364.571 36.5892L71.6945 205.689Z" fill="url(#paint8_linear_27_1337)"/>
<path d="M89.9881 359.626C89.4937 359.956 88.9992 360.78 88.9992 361.274V371.822C88.9992 372.482 89.4937 372.647 89.9881 372.482L116.523 357.154C117.018 356.824 117.512 356 117.512 355.341V344.793C117.512 344.134 117.018 343.969 116.523 344.298L89.9881 359.626Z" fill="#EBEEEE"/>
<path d="M146.19 330.124C145.531 330.454 145.037 331.443 145.037 332.102V338.2C145.037 338.86 145.531 339.189 146.19 338.86L151.464 335.728C152.124 335.398 152.618 334.41 152.618 333.75V327.652C152.618 326.993 152.124 326.663 151.464 326.993L146.19 330.124Z" fill="#EBEEEE"/>
<path d="M141.246 327.982V329.63L152.454 323.202V321.389L141.246 327.982Z" fill="#EBEEEE"/>
<path d="M126.413 331.608V333.256L152.454 318.258V316.61L126.413 331.608Z" fill="#EBEEEE"/>
<path d="M118.995 303.26L119.16 303.095C118.995 303.26 118.995 303.26 118.995 303.26Z" fill="#FF6600"/>
<path d="M126.413 321.884V323.532L152.454 308.534V306.721L126.413 321.884Z" fill="#EBEEEE"/>
<path d="M112.239 313.643L112.404 316.609L129.215 306.721V303.919L112.239 313.643Z" fill="#EBEEEE"/>
<path d="M124.929 299.304C125.094 299.139 125.259 299.139 125.259 298.974C125.259 299.139 125.094 299.304 124.929 299.304Z" fill="#FF6600"/>
<path d="M126.908 297.656C127.072 297.491 127.072 297.491 127.237 297.326C127.237 297.491 127.072 297.491 126.908 297.656Z" fill="#FF6600"/>
<path d="M102.349 325.674V328.641L139.103 307.38V304.413L102.349 325.674Z" fill="#EBEEEE"/>
<path d="M89.9881 342.65C89.4937 342.98 88.9992 343.804 88.9992 344.298V354.847C88.9992 355.506 89.4937 355.671 89.9881 355.341L116.523 340.013C117.018 339.684 117.512 338.86 117.512 338.365V327.817C117.512 327.158 117.018 326.993 116.523 327.323L89.9881 342.65Z" fill="#EBEEEE"/>
<path d="M122.292 301.282C122.128 301.282 122.128 301.447 121.963 301.447C121.963 301.611 122.128 301.447 122.292 301.282C122.292 301.447 122.292 301.447 122.292 301.282Z" fill="#FF6600"/>
<path d="M119.16 303.095C118.996 303.259 118.996 303.259 119.16 303.095V303.095Z" fill="#FF6600"/>
<path d="M119.16 303.095C118.996 303.259 118.996 303.259 119.16 303.095V303.095Z" fill="#FF6600"/>
<path d="M129.709 267.33C129.709 267 129.709 266.671 129.709 266.341C129.709 266.341 129.709 266.341 129.709 266.176C129.545 267.33 129.38 268.484 129.215 269.637C129.215 269.637 129.215 270.132 129.05 270.791C129.215 270.132 129.215 269.473 129.215 268.813C129.545 268.319 129.709 267.824 129.709 267.33Z" fill="#89543C"/>
<path d="M113.722 281.01C113.887 281.834 114.217 282.987 114.546 283.647C114.382 282.658 113.887 281.504 113.722 281.01Z" fill="#89543C"/>
<path d="M127.072 285.954C127.731 285.954 128.72 286.119 129.874 286.119C131.687 286.119 134.324 286.119 135.807 286.284C139.268 280.185 141.246 273.263 141.246 267C141.246 254.145 132.016 248.871 120.809 255.298C109.602 261.726 100.372 277.548 100.537 290.569C100.537 296.832 102.679 301.282 106.141 303.424C108.448 300.293 113.722 294.36 114.052 294.195C114.216 294.03 114.216 293.865 114.381 293.865L114.216 293.7L115.37 291.558H115.865L116.194 289.745C115.37 289.58 114.711 289.25 114.546 288.921C114.216 288.261 113.887 286.943 113.722 285.46C113.557 285.46 113.228 285.295 112.898 284.8C112.074 283.647 111.744 280.68 112.568 280.185C112.568 279.856 111.579 274.582 111.579 273.263C111.744 271.945 115.205 264.198 118.007 261.397C118.337 261.067 118.831 260.737 119.326 260.408C122.457 258.595 127.566 258.43 129.05 259.419C129.05 259.584 130.368 261.067 130.368 262.056C130.368 262.385 130.039 264.198 129.874 266.341C129.874 266.835 129.874 267.165 129.874 267.495C129.874 267.989 129.709 268.484 129.709 268.978C129.709 269.472 129.544 270.132 129.544 270.956C129.709 270.626 129.874 270.461 130.204 270.297C131.028 269.802 130.533 273.263 129.874 275.241C129.544 276.395 129.215 276.889 128.885 277.054C128.555 278.867 128.226 280.515 128.061 281.504C127.896 282.163 127.072 283.317 126.248 284.635L126.578 285.624L127.072 285.954Z" fill="#EBEEEE"/>
<path d="M159.706 216.732L160.035 340.013L82.0777 385.008L81.7481 261.726L159.706 216.732ZM120.644 255.463C109.437 261.891 100.207 277.713 100.372 290.734C100.372 303.424 109.272 308.698 120.315 302.6C120.48 302.435 120.644 302.435 120.809 302.271C121.139 302.106 121.633 301.776 121.963 301.611L122.128 301.447C122.128 301.447 122.128 301.447 122.293 301.447C132.841 294.524 141.246 279.526 141.081 267.165C141.081 254.145 132.017 248.871 120.644 255.463ZM102.35 325.674V328.476L139.104 307.215V304.413L102.35 325.674ZM129.215 306.721V303.919L112.239 313.643V316.445L129.215 306.721ZM152.454 311.665L135.643 321.389V323.037L152.454 313.313V311.665ZM145.037 338.2C145.037 338.859 145.531 339.189 146.191 338.86L151.465 335.728C152.124 335.398 152.618 334.41 152.618 333.75V327.652C152.618 326.993 152.124 326.663 151.465 326.993L146.191 330.124C145.531 330.454 145.037 331.443 145.037 332.102V338.2ZM141.246 329.63L152.454 323.202V321.554L141.246 327.982V329.63ZM126.413 333.256L152.454 318.258V316.61L126.413 331.608V333.256ZM126.413 323.532L152.454 308.534V306.885L126.413 321.884V323.532ZM88.9999 371.987C88.9999 372.647 89.4944 372.811 89.9888 372.647L116.524 357.319C117.018 356.989 117.513 356.165 117.513 355.506V344.958C117.513 344.298 117.018 344.134 116.524 344.463L89.9888 359.791C89.4944 360.121 88.9999 360.945 88.9999 361.439V371.987ZM88.9999 355.011C88.9999 355.671 89.4944 355.835 89.9888 355.506L116.524 340.178C117.018 339.848 117.513 339.024 117.513 338.53V327.982C117.513 327.322 117.018 327.158 116.524 327.487L89.9888 342.815C89.4944 343.145 88.9999 343.969 88.9999 344.463V355.011Z" fill="white"/>
<path d="M152.454 313.478L135.643 323.037V321.389L152.454 311.665V313.478Z" fill="#EBEEEE"/>
<path d="M134.159 288.756C134.159 288.591 134.324 288.591 134.324 288.426C134.324 288.591 134.324 288.591 134.159 288.756Z" fill="#FF6600"/>
<path d="M133.994 288.921C133.994 288.756 134.159 288.756 134.159 288.591C134.159 288.756 134.159 288.921 133.994 288.921Z" fill="#FF6600"/>
<path d="M131.193 292.876C131.193 292.711 131.357 292.711 131.357 292.547C131.357 292.711 131.357 292.876 131.193 292.876Z" fill="#FF6600"/>
<path d="M131.028 293.206L131.193 293.041C131.193 293.041 131.193 293.041 131.028 293.206Z" fill="#FF6600"/>
<path d="M123.941 300.128C124.105 299.963 124.27 299.963 124.435 299.799C124.27 299.963 124.105 300.128 123.941 300.128Z" fill="#FF6600"/>
<path d="M116.194 304.248C116.359 304.248 116.524 304.083 116.524 304.083C116.524 304.248 116.359 304.248 116.194 304.248Z" fill="#FF6600"/>
<path d="M120.643 292.712L120.808 292.876L120.643 292.712Z" fill="#7D7D7E"/>
<path d="M112.898 305.073C113.063 305.073 113.063 305.073 113.228 305.073C113.228 304.908 113.063 304.908 112.898 305.073Z" fill="#FF6600"/>
<path d="M107.624 304.249H107.789C107.624 304.413 107.624 304.249 107.624 304.249Z" fill="#FF6600"/>
<path d="M107.129 304.083H107.294C107.294 304.248 107.294 304.248 107.129 304.083Z" fill="#FF6600"/>
<path d="M106.8 303.919C106.965 303.919 106.965 304.084 107.13 304.084C106.965 304.084 106.8 303.919 106.8 303.919Z" fill="#FF6600"/>
<path d="M114.216 293.865L114.052 293.7L115.205 291.558H115.7L116.029 289.745C115.205 289.58 114.546 289.25 114.381 288.921C114.052 288.261 113.722 286.943 113.557 285.459C113.392 285.459 113.063 285.295 112.733 284.8C111.909 283.647 111.579 280.68 112.403 280.185C112.403 279.856 111.415 274.582 111.415 273.263C111.579 271.945 115.04 264.198 117.842 261.397C118.172 261.067 118.666 260.737 119.161 260.408C122.292 258.595 127.402 258.43 128.885 259.419C128.885 259.584 130.203 261.067 130.203 262.056C130.203 262.385 129.874 264.198 129.709 266.341C129.544 267.495 129.379 268.648 129.215 269.802C129.215 269.802 129.215 270.297 129.05 270.956C129.215 270.626 129.379 270.461 129.709 270.297C130.533 269.802 130.039 273.263 129.379 275.241C129.05 276.395 128.72 276.889 128.39 277.054C128.061 278.867 127.896 280.515 127.566 281.504C127.402 282.163 126.578 283.317 125.753 284.635L126.083 285.624L127.072 286.284C127.731 286.284 128.72 286.448 129.874 286.448C131.687 286.448 134.324 286.448 135.807 286.613C135.807 286.778 135.642 286.778 135.642 286.943C135.642 287.108 135.478 287.108 135.478 287.272C135.478 287.437 135.313 287.437 135.313 287.602C135.313 287.767 135.148 287.767 135.148 287.932C135.148 288.097 134.983 288.097 134.983 288.261C134.818 288.426 134.818 288.591 134.653 288.756C134.653 288.921 134.489 288.921 134.489 289.085C134.489 289.25 134.324 289.25 134.324 289.415C134.324 289.58 134.159 289.58 134.159 289.745C134.159 289.909 133.994 289.909 133.994 290.074C133.994 290.239 133.829 290.239 133.829 290.404C133.829 290.569 133.665 290.569 133.665 290.734C133.5 290.898 133.5 291.063 133.335 291.228C133.335 291.393 133.17 291.393 133.17 291.558C133.17 291.722 133.005 291.722 133.005 291.887L132.84 292.052C132.84 292.217 132.676 292.217 132.676 292.382L132.511 292.547C132.511 292.711 132.346 292.711 132.346 292.876C132.346 293.041 132.181 293.041 132.181 293.206C132.016 293.371 132.016 293.535 131.852 293.535L131.687 293.7C131.687 293.865 131.522 293.865 131.522 294.03L131.357 294.195C131.357 294.359 131.192 294.359 131.192 294.524L131.028 294.689C130.863 294.854 130.863 295.019 130.698 295.019C130.698 295.184 130.533 295.184 130.533 295.348L130.368 295.513L130.203 295.678L130.039 295.843L129.874 296.008L129.709 296.172L129.544 296.337C129.379 296.502 129.379 296.502 129.215 296.667L129.05 296.832L128.885 296.997L128.72 297.161L128.555 297.326L128.39 297.491L128.226 297.656C128.061 297.821 128.061 297.821 127.896 297.985L127.731 298.15C127.566 298.15 127.566 298.315 127.402 298.315L127.237 298.48L127.072 298.645L126.907 298.809C126.742 298.809 126.742 298.974 126.578 298.974L126.413 299.139C126.248 299.304 126.083 299.304 126.083 299.469L128.72 286.284L125.918 299.469C125.918 299.469 125.753 299.469 125.753 299.634C125.589 299.634 125.589 299.798 125.424 299.798L125.259 299.963C125.094 300.128 124.929 300.128 124.765 300.293C124.765 300.293 124.765 300.293 124.6 300.458C124.435 300.622 124.435 300.622 124.27 300.787C124.27 300.787 124.105 300.787 124.105 300.952C123.94 301.117 123.94 301.117 123.776 301.282C123.776 301.282 123.611 301.282 123.611 301.447C123.446 301.611 123.281 301.611 123.281 301.776C123.281 301.776 123.116 301.776 123.116 301.941C123.116 301.941 123.116 301.941 122.952 301.941L122.787 302.106C122.787 302.106 122.787 302.106 122.622 302.106C122.457 302.271 122.292 302.271 122.128 302.435H121.963C121.798 302.6 121.633 302.6 121.468 302.765C121.303 302.93 121.139 302.93 120.974 303.095C120.974 303.095 120.809 303.095 120.809 303.259C120.644 303.259 120.644 303.424 120.479 303.424C120.479 303.424 120.315 303.424 120.315 303.589C120.15 303.589 120.15 303.754 119.985 303.754C119.985 303.754 119.82 303.754 119.82 303.919C119.82 303.919 119.82 303.919 119.655 303.919C119.655 303.919 119.655 303.919 119.49 303.919C119.326 303.919 119.161 304.084 119.161 304.084H118.996C118.831 304.084 118.666 304.248 118.502 304.248H118.337C118.172 304.248 118.007 304.413 117.842 304.413C117.678 304.413 117.513 304.578 117.183 304.578L114.381 294.524C114.052 294.03 114.052 293.865 114.216 293.865ZM121.303 289.415C121.139 289.58 121.139 289.58 121.139 289.745C121.139 289.745 121.303 289.58 121.303 289.415ZM114.711 283.976C114.711 283.811 114.546 283.811 114.546 283.647C114.546 282.822 114.052 281.669 113.722 281.009C113.887 281.834 114.216 282.987 114.546 283.647C114.546 283.811 114.546 283.976 114.711 283.976C114.876 284.141 114.876 284.306 115.04 284.306C114.876 284.306 114.711 284.141 114.711 283.976Z" fill="#B8B8B8"/>
<path d="M113.887 294.194L116.688 304.248C116.524 304.248 116.359 304.413 116.359 304.413H116.194C116.029 304.413 116.029 304.413 115.864 304.578H115.7C115.535 304.578 115.535 304.578 115.37 304.578H115.205C115.04 304.578 115.04 304.578 114.876 304.578H114.711C114.546 304.578 114.381 304.578 114.381 304.742H114.216C114.051 304.742 114.051 304.742 113.887 304.742H113.722C113.557 304.742 113.557 304.742 113.557 304.742H113.392C113.227 304.742 113.227 304.742 113.063 304.742H112.898C112.733 304.742 112.733 304.742 112.568 304.742H112.403H112.238H112.074H111.909H111.744C111.579 304.742 111.579 304.742 111.414 304.742H111.25H111.085H110.92H110.755H110.59H110.426H110.261C110.096 304.742 110.096 304.742 109.931 304.742H109.766H109.601H109.437H109.272H109.107H108.942H108.777H108.613H108.448H108.283H108.118H107.953H107.788C107.624 304.742 107.624 304.578 107.459 304.578H107.294C107.294 304.578 107.129 304.578 107.129 304.413C107.129 304.413 106.964 304.413 106.964 304.248C106.964 304.248 106.8 304.248 106.8 304.083C106.8 304.083 106.635 304.083 106.635 303.918C108.283 300.292 113.557 294.524 113.887 294.194Z" fill="#B8B8B8"/>
<path d="M292.876 253.98C292.381 254.31 291.887 255.134 291.887 255.628V266.176C291.887 266.835 292.381 267 292.876 266.835L319.411 251.508C319.905 251.178 320.4 250.354 320.4 249.695V239.147C320.4 238.487 319.905 238.322 319.411 238.652L292.876 253.98Z" fill="#EBEEEE"/>
<path d="M349.078 224.478C348.419 224.808 347.924 225.797 347.924 226.456V232.554C347.924 233.213 348.419 233.543 349.078 233.213L354.352 230.082C355.011 229.752 355.506 228.763 355.506 228.104V222.006C355.506 221.347 355.011 221.017 354.352 221.347L349.078 224.478Z" fill="#EBEEEE"/>
<path d="M344.133 222.336V223.984L355.34 217.556V215.743L344.133 222.336Z" fill="#EBEEEE"/>
<path d="M329.3 225.962L329.464 227.61L355.34 212.612V210.963L329.3 225.962Z" fill="#EBEEEE"/>
<path d="M321.883 197.613L322.048 197.448C322.048 197.613 321.883 197.613 321.883 197.613Z" fill="#FF6600"/>
<path d="M329.3 216.072V217.885L355.34 202.887V201.074L329.3 216.072Z" fill="#EBEEEE"/>
<path d="M315.291 207.997V210.798L332.102 201.074V198.272L315.291 207.997Z" fill="#EBEEEE"/>
<path d="M327.982 193.658C328.147 193.493 328.312 193.493 328.312 193.328C328.147 193.493 327.982 193.658 327.982 193.658C327.817 193.658 327.817 193.658 327.982 193.658Z" fill="#FF6600"/>
<path d="M329.959 192.01C330.124 191.845 330.124 191.845 330.289 191.68C330.124 191.68 329.959 191.845 329.959 192.01Z" fill="#FF6600"/>
<path d="M305.402 220.028V222.995L342.155 201.734L341.99 198.767L305.402 220.028Z" fill="#EBEEEE"/>
<path d="M292.876 237.004C292.381 237.333 291.887 238.158 291.887 238.652V249.2C291.887 249.859 292.381 250.024 292.876 249.695L319.411 234.367C319.905 234.037 320.4 233.213 320.4 232.719V222.17C320.4 221.511 319.905 221.346 319.411 221.676L292.876 237.004Z" fill="#EBEEEE"/>
<path d="M325.179 195.635C325.014 195.635 325.014 195.8 324.849 195.8C325.014 195.8 325.014 195.8 325.179 195.635C325.179 195.8 325.179 195.8 325.179 195.635Z" fill="#FF6600"/>
<path d="M322.048 197.448C321.884 197.613 321.884 197.613 322.048 197.448V197.448Z" fill="#FF6600"/>
<path d="M332.595 161.683C332.595 161.354 332.595 161.024 332.595 160.695C332.595 160.695 332.595 160.695 332.595 160.53C332.43 161.683 332.266 162.837 332.101 163.991C332.101 163.991 332.101 164.485 331.936 165.145C332.101 164.485 332.101 163.826 332.101 163.167C332.43 162.672 332.595 162.178 332.595 161.683Z" fill="#89543C"/>
<path d="M316.61 175.363C316.774 176.187 317.104 177.341 317.434 178C317.269 177.011 316.774 175.858 316.61 175.363Z" fill="#89543C"/>
<path d="M329.959 180.308C330.618 180.308 331.607 180.473 332.761 180.473C334.574 180.473 337.211 180.473 338.694 180.637C342.155 174.539 344.133 167.617 344.133 161.354C344.133 148.498 334.903 143.224 323.696 149.652C312.488 156.08 303.259 171.902 303.424 184.923C303.424 191.185 305.566 195.635 309.027 197.778C311.335 194.647 316.609 188.713 316.938 188.548C317.103 188.384 317.103 188.219 317.268 188.219L317.103 188.054L318.257 185.911H318.751L319.081 184.098C318.257 183.934 317.598 183.604 317.433 183.274C317.103 182.615 316.774 181.297 316.609 179.813C316.444 179.813 316.114 179.648 315.785 179.154C314.961 178 314.631 175.034 315.455 174.539C315.455 174.21 314.466 168.935 314.466 167.617C314.631 166.298 318.092 158.552 320.894 155.75C321.224 155.421 321.718 155.091 322.212 154.761C325.344 152.948 330.453 152.784 331.937 153.773C331.937 153.937 333.255 155.421 333.255 156.41C333.255 156.739 332.925 158.552 332.761 160.695C332.761 161.189 332.761 161.519 332.761 161.848C332.761 162.343 332.596 162.837 332.596 163.332C332.596 163.826 332.431 164.485 332.431 165.31C332.596 164.98 332.761 164.815 333.09 164.65C333.914 164.156 333.42 167.617 332.761 169.595C332.431 170.748 332.101 171.243 331.772 171.408C331.442 173.221 331.112 174.869 330.948 175.858C330.783 176.517 329.959 177.671 329.135 178.989L329.464 179.978L329.959 180.308Z" fill="#EBEEEE"/>
<path d="M362.593 111.085L362.922 234.367L284.965 279.361L284.635 156.08L362.593 111.085ZM323.532 149.817C312.324 156.245 303.095 172.067 303.259 185.087C303.259 197.778 312.159 203.052 323.202 196.954C323.367 196.789 323.532 196.789 323.696 196.624C324.026 196.46 324.521 196.13 324.85 195.965L325.015 195.8C325.015 195.8 325.015 195.8 325.18 195.8C335.728 188.878 344.133 173.88 343.969 161.519C343.969 148.498 334.904 143.224 323.532 149.817ZM305.402 220.028V222.83L342.156 201.569V198.767L305.402 220.028ZM332.102 201.074V198.273L315.126 207.997V210.798L332.102 201.074ZM355.341 206.019L338.53 215.743V217.391L355.341 207.667V206.019ZM348.089 232.554C348.089 233.213 348.583 233.543 349.243 233.213L354.517 230.082C355.176 229.752 355.671 228.763 355.671 228.104V222.006C355.671 221.347 355.176 221.017 354.517 221.347L349.243 224.478C348.583 224.808 348.089 225.797 348.089 226.456V232.554ZM344.133 223.984L355.341 217.556V215.908L344.133 222.335V223.984ZM329.465 227.61L355.506 212.611V210.963L329.465 225.961V227.61ZM329.3 217.885L355.341 202.887V201.239L329.3 216.237V217.885ZM291.887 266.341C291.887 267 292.382 267.165 292.876 267L319.411 251.673C319.906 251.343 320.4 250.519 320.4 249.86V239.311C320.4 238.652 319.906 238.487 319.411 238.817L292.876 254.145C292.382 254.474 291.887 255.298 291.887 255.793V266.341ZM291.887 249.365C291.887 250.024 292.382 250.189 292.876 249.86L319.411 234.532C319.906 234.202 320.4 233.378 320.4 232.884V222.335C320.4 221.676 319.906 221.511 319.411 221.841L292.876 237.169C292.382 237.498 291.887 238.323 291.887 238.817V249.365Z" fill="#FAFAFA"/>
<path d="M355.34 207.667L338.694 217.391V215.743L355.34 206.019V207.667Z" fill="#EBEEEE"/>
<path d="M337.211 183.109C337.211 182.945 337.376 182.945 337.376 182.78C337.211 182.945 337.211 182.945 337.211 183.109Z" fill="#FF6600"/>
<path d="M337.047 183.274C337.047 183.11 337.211 183.11 337.211 182.945C337.047 183.11 337.047 183.274 337.047 183.274Z" fill="#FF6600"/>
<path d="M334.244 187.23C334.244 187.065 334.409 187.065 334.409 186.9C334.244 187.065 334.244 187.23 334.244 187.23Z" fill="#FF6600"/>
<path d="M334.079 187.56L334.244 187.395C334.079 187.395 334.079 187.395 334.079 187.56Z" fill="#FF6600"/>
<path d="M333.255 188.384C333.42 188.219 333.42 188.054 333.585 188.054C333.585 188.054 333.42 188.219 333.255 188.384Z" fill="#FF6600"/>
<path d="M326.828 194.482C326.993 194.317 327.157 194.317 327.322 194.152C327.157 194.317 326.993 194.482 326.828 194.482Z" fill="#FF6600"/>
<path d="M319.081 198.602C319.246 198.602 319.411 198.437 319.411 198.437C319.411 198.602 319.246 198.602 319.081 198.602Z" fill="#FF6600"/>
<path d="M311.005 198.767H311.17C311.17 198.932 311.17 198.932 311.005 198.767Z" fill="#FF6600"/>
<path d="M310.181 198.437H310.346C310.181 198.602 310.181 198.437 310.181 198.437Z" fill="#FF6600"/>
<path d="M317.104 188.054L316.939 187.889L318.092 185.747H318.587L318.917 183.934C318.092 183.769 317.433 183.439 317.268 183.11C316.939 182.45 316.609 181.132 316.444 179.648C316.28 179.648 315.95 179.484 315.62 178.989C314.796 177.835 314.467 174.869 315.291 174.374C315.291 174.045 314.302 168.771 314.302 167.452C314.467 166.134 317.928 158.387 320.73 155.585C321.059 155.256 321.554 154.926 322.048 154.597C325.18 152.784 330.289 152.619 331.772 153.608C331.772 153.773 333.091 155.256 333.091 156.245C333.091 156.574 332.761 158.387 332.596 160.53C332.431 161.684 332.267 162.837 332.102 163.991C332.102 163.991 332.102 164.485 331.937 165.145C332.102 164.815 332.267 164.65 332.596 164.485C333.42 163.991 332.926 167.452 332.267 169.43C331.937 170.584 331.607 171.078 331.278 171.243C330.948 173.056 330.783 174.704 330.454 175.693C330.289 176.352 329.465 177.506 328.641 178.824L328.97 179.813L329.959 180.473C330.618 180.473 331.607 180.637 332.761 180.637C334.574 180.637 337.211 180.637 338.694 180.802C338.694 180.967 338.53 180.967 338.53 181.132C338.53 181.297 338.365 181.297 338.365 181.461C338.365 181.626 338.2 181.626 338.2 181.791C338.2 181.956 338.035 181.956 338.035 182.121C338.035 182.285 337.87 182.285 337.87 182.45C337.705 182.615 337.705 182.78 337.541 182.945C337.541 183.11 337.376 183.11 337.376 183.274C337.376 183.439 337.211 183.439 337.211 183.604C337.211 183.769 337.046 183.769 337.046 183.934C337.046 184.098 336.881 184.098 336.881 184.263C336.881 184.428 336.717 184.428 336.717 184.593C336.717 184.758 336.552 184.758 336.552 184.923C336.387 185.087 336.387 185.252 336.222 185.417C336.222 185.582 336.057 185.582 336.057 185.747C336.057 185.911 335.892 185.911 335.892 186.076L335.728 186.241C335.728 186.406 335.563 186.406 335.563 186.571L335.398 186.735C335.398 186.9 335.233 186.9 335.233 187.065C335.233 187.23 335.068 187.23 335.068 187.395C334.904 187.56 334.904 187.724 334.739 187.724L334.574 187.889C334.574 188.054 334.409 188.054 334.409 188.219L334.244 188.384C334.244 188.548 334.08 188.548 334.08 188.713L333.915 188.878C333.75 189.043 333.75 189.208 333.585 189.208C333.585 189.373 333.42 189.373 333.42 189.537L333.255 189.702L333.091 189.867L332.926 190.032L332.761 190.197L332.596 190.361L332.431 190.526C332.267 190.691 332.267 190.691 332.102 190.856L331.937 191.021L331.772 191.185L331.607 191.35L331.442 191.515L331.278 191.68L331.113 191.845C330.948 192.01 330.948 192.01 330.783 192.174L330.618 192.339C330.454 192.339 330.454 192.504 330.289 192.504L330.124 192.669L329.959 192.834L329.794 192.998C329.63 192.998 329.63 193.163 329.465 193.163L329.3 193.328C329.135 193.493 328.97 193.493 328.97 193.658L331.607 180.473L328.805 193.658C328.805 193.658 328.641 193.658 328.641 193.823C328.476 193.823 328.476 193.987 328.311 193.987L328.146 194.152C327.981 194.317 327.817 194.317 327.652 194.482C327.652 194.482 327.652 194.482 327.487 194.647C327.322 194.811 327.322 194.811 327.157 194.976C327.157 194.976 326.992 194.976 326.992 195.141C326.828 195.306 326.828 195.306 326.663 195.471C326.663 195.471 326.498 195.471 326.498 195.635C326.333 195.8 326.168 195.8 326.168 195.965C326.168 195.965 326.004 195.965 326.004 196.13C326.004 196.13 326.004 196.13 325.839 196.13L325.674 196.295C325.674 196.295 325.674 196.295 325.509 196.295C325.344 196.46 325.18 196.46 325.015 196.624H324.85C324.685 196.789 324.52 196.789 324.355 196.954C324.191 197.119 324.026 197.119 323.861 197.284C323.861 197.284 323.696 197.284 323.696 197.448C323.531 197.448 323.531 197.613 323.367 197.613C323.367 197.613 323.202 197.613 323.202 197.778C323.037 197.778 323.037 197.943 322.872 197.943C322.872 197.943 322.707 197.943 322.707 198.108C322.707 198.108 322.707 198.108 322.542 198.108C322.542 198.108 322.542 198.108 322.378 198.108C322.213 198.108 322.048 198.273 322.048 198.273H321.883C321.718 198.273 321.554 198.437 321.389 198.437H321.224C321.059 198.437 320.894 198.602 320.73 198.602C320.565 198.602 320.4 198.767 320.07 198.767L317.268 188.713C316.939 188.384 316.939 188.219 317.104 188.054ZM325.344 182.945C325.015 183.274 324.685 183.604 324.355 183.769C324.191 183.934 324.191 183.934 324.191 184.098C324.191 184.098 324.355 183.934 324.355 183.769C324.685 183.604 324.85 183.274 325.344 182.945ZM317.598 178.33C317.598 178.165 317.433 178.165 317.433 178C317.433 177.176 316.939 176.023 316.609 175.363C316.774 176.187 317.104 177.341 317.433 178C317.433 178.165 317.433 178.165 317.598 178.33C317.763 178.495 317.763 178.66 317.928 178.66C317.763 178.66 317.598 178.495 317.598 178.33Z" fill="#B8B8B8"/>
<path d="M316.774 188.548L319.576 198.602C319.411 198.602 319.246 198.767 319.246 198.767H319.081C318.916 198.767 318.916 198.767 318.752 198.932H318.587C318.422 198.932 318.422 198.932 318.257 198.932H318.092C317.928 198.932 317.928 198.932 317.763 198.932H317.598C317.433 198.932 317.268 198.932 317.268 199.096H317.103C316.939 199.096 316.939 199.096 316.774 199.096H316.609C316.444 199.096 316.444 199.096 316.444 199.096H316.279C316.115 199.096 316.115 199.096 315.95 199.096H315.785C315.62 199.096 315.62 199.096 315.455 199.096H315.291H315.126H314.961H314.796H314.631C314.466 199.096 314.466 199.096 314.302 199.096H314.137H313.972H313.807H313.642H313.478H313.313H313.148C312.983 199.096 312.983 199.096 312.818 199.096H312.653H312.489H312.324H312.159H311.994H311.829H311.665H311.5H311.335H311.17H311.005H310.841H310.676C310.511 199.096 310.511 198.932 310.346 198.932H310.181C310.181 198.932 310.016 198.932 310.016 198.767C310.016 198.767 309.852 198.767 309.852 198.602C309.852 198.602 309.687 198.602 309.687 198.437C309.687 198.437 309.522 198.437 309.522 198.272C311.17 194.646 316.444 188.878 316.774 188.548Z" fill="#B8B8B8"/>
<path d="M275.57 119.821L275.899 277.384L176.351 334.904L175.857 177.341L275.57 119.821Z" fill="url(#paint9_linear_27_1337)"/>
<path d="M288.096 125.095L288.59 282.658L188.877 340.343L188.548 182.615L288.096 125.095Z" fill="url(#paint10_linear_27_1337)"/>
<path d="M208.161 320.4C207.502 320.73 206.843 321.719 206.843 322.543V336.058C206.843 336.882 207.337 337.212 208.161 336.882L241.948 317.269C242.607 316.939 243.267 315.95 243.267 315.126V301.612C243.267 300.787 242.772 300.458 241.948 300.952L208.161 320.4Z" fill="#C5C5C5"/>
<path d="M280.02 282.658C279.196 283.152 278.537 284.306 278.537 285.295V293.206C278.537 294.195 279.196 294.524 280.02 294.03L286.777 290.074C287.601 289.58 288.261 288.426 288.261 287.437V279.526C288.261 278.537 287.601 278.208 286.777 278.702L280.02 282.658Z" fill="#FF6600"/>
<path d="M273.593 279.856V282.163L287.932 273.758V271.615L273.593 279.856Z" fill="#EBEEEE"/>
<path d="M254.804 284.471V286.778L287.932 267.495V265.352L254.804 284.471Z" fill="#EBEEEE"/>
<path d="M245.08 248.376L245.409 248.211C245.244 248.211 245.244 248.376 245.08 248.376Z" fill="#FF6600"/>
<path d="M254.639 272.11V274.252L287.932 255.134V252.826L254.639 272.11Z" fill="#EBEEEE"/>
<path d="M236.674 261.561V265.352L258.265 252.826V249.2L236.674 261.561Z" fill="#EBEEEE"/>
<path d="M256.286 226.456L252.825 243.267C252.99 243.102 253.155 242.937 253.32 242.773L253.484 242.608C253.649 242.443 253.649 242.443 253.814 242.278C253.979 242.278 253.979 242.113 254.144 242.113C254.308 241.949 254.308 241.949 254.473 241.784C254.638 241.784 254.638 241.619 254.803 241.619C254.968 241.454 254.968 241.454 255.132 241.289C255.297 241.124 255.297 241.124 255.462 240.96C255.627 240.795 255.792 240.63 255.957 240.63C256.121 240.465 256.121 240.465 256.286 240.3C256.451 240.136 256.451 240.136 256.616 239.971C256.781 239.806 256.781 239.806 256.945 239.641C257.11 239.476 257.11 239.476 257.275 239.311C257.44 239.147 257.44 239.147 257.605 238.982C257.77 238.817 257.77 238.817 257.934 238.652C258.099 238.487 258.264 238.323 258.429 238.158C258.594 237.993 258.594 237.993 258.758 237.828C258.923 237.663 258.923 237.663 259.088 237.499C259.088 237.334 259.253 237.334 259.253 237.169C259.418 237.004 259.418 237.004 259.582 236.839C259.582 236.674 259.747 236.674 259.747 236.51C259.912 236.345 259.912 236.345 260.077 236.18C260.242 236.015 260.242 236.015 260.407 235.85C260.571 235.686 260.736 235.521 260.736 235.356C260.736 235.191 260.901 235.191 260.901 235.026C261.066 234.861 261.066 234.861 261.231 234.697C261.231 234.532 261.395 234.532 261.395 234.367C261.56 234.202 261.56 234.202 261.725 234.037C261.725 233.873 261.89 233.873 261.89 233.708C262.055 233.543 262.22 233.378 262.22 233.213C262.384 233.049 262.384 232.884 262.549 232.884C262.549 232.719 262.714 232.719 262.714 232.554C262.714 232.389 262.879 232.389 262.879 232.224C263.044 232.06 263.044 232.06 263.044 231.895C263.044 231.73 263.208 231.73 263.208 231.565C263.208 231.4 263.373 231.4 263.373 231.236C263.373 231.071 263.538 231.071 263.538 230.906C263.703 230.741 263.703 230.576 263.868 230.411C263.868 230.247 264.032 230.247 264.032 230.082C264.032 229.917 264.197 229.917 264.197 229.752C264.197 229.587 264.362 229.587 264.362 229.423C264.362 229.258 264.527 229.258 264.527 229.093C264.527 228.928 264.692 228.928 264.692 228.763C264.692 228.599 264.857 228.599 264.857 228.434C265.021 228.269 265.021 228.104 265.186 227.774C265.186 227.61 265.351 227.61 265.351 227.445C265.351 227.28 265.516 227.115 265.516 227.115C265.516 226.95 265.681 226.95 265.681 226.786C265.681 226.621 265.845 226.456 265.845 226.456C265.845 226.291 266.01 226.291 266.01 226.126C266.01 226.126 266.01 226.126 266.01 225.961C264.197 225.632 260.901 225.632 258.594 225.632C257.44 226.456 256.451 226.456 256.286 226.456Z" fill="#001030"/>
<path d="M255.462 241.124C255.627 240.959 255.792 240.795 255.957 240.795C255.627 240.795 255.462 240.959 255.462 241.124Z" fill="#FF6600"/>
<path d="M250.353 237.828L249.364 236.839L247.551 239.806L249.2 245.904C249.2 245.904 249.364 245.904 249.364 245.739L249.529 245.574C249.694 245.409 249.859 245.409 250.024 245.245C250.024 245.245 250.188 245.245 250.188 245.08C250.353 244.915 250.518 244.915 250.683 244.75L250.848 244.585C251.012 244.42 251.177 244.42 251.342 244.256C251.342 244.256 251.507 244.256 251.507 244.091C251.672 243.926 251.837 243.761 252.001 243.761L252.166 243.596C252.331 243.432 252.496 243.432 252.496 243.267L252.661 243.102L256.122 226.291C256.122 226.291 257.275 226.291 258.759 226.126C257.275 225.961 256.122 225.961 255.298 225.796L255.462 225.961L250.353 237.828Z" fill="#C5C5C5"/>
<path d="M223.983 277.054V280.68L270.955 253.65V249.86L223.983 277.054Z" fill="#EBEEEE"/>
<path d="M247.386 235.026L247.222 234.861L245.079 239.476L246.892 240.465L247.222 238.322L247.716 239.971L249.364 236.839L247.386 235.026Z" fill="#001030"/>
<path d="M208.161 298.645C207.502 298.974 206.843 299.963 206.843 300.787V314.302C206.843 315.126 207.337 315.456 208.161 314.962L241.948 295.349C242.607 295.019 243.267 294.03 243.267 293.206V279.691C243.267 278.867 242.772 278.537 241.948 279.032L208.161 298.645Z" fill="#C5C5C5"/>
<path d="M258.264 206.678C258.1 208.491 257.77 211.623 257.275 214.424C257.605 214.26 257.935 213.6 258.594 212.117C259.583 209.48 260.077 205.195 259.088 205.689C258.759 206.019 258.594 206.348 258.264 206.678Z" fill="#FF9D6F"/>
<path d="M246.727 247.552C246.727 247.552 246.892 247.552 246.892 247.387C247.057 247.223 247.386 247.222 247.551 247.058C247.716 246.893 247.881 246.893 248.211 246.728C248.211 246.728 248.375 246.728 248.375 246.563C248.54 246.398 248.705 246.398 248.87 246.234H249.035C249.199 246.234 249.199 246.069 249.364 246.069L247.716 239.971L247.222 238.487L246.892 240.465L245.244 248.376H245.409C245.574 248.376 245.574 248.211 245.738 248.211C245.903 248.211 245.903 248.047 246.068 248.047C246.233 248.047 246.233 247.882 246.398 247.882C246.398 247.717 246.562 247.552 246.727 247.552Z" fill="#001030"/>
<path d="M245.409 248.211L245.244 248.376C245.244 248.211 245.244 248.211 245.409 248.211Z" fill="#FF6600"/>
<path d="M244.255 241.454L239.145 236.18C238.98 236.345 238.816 236.51 238.651 236.674L242.277 249.53C242.606 249.365 242.771 249.365 243.101 249.2C243.43 249.035 243.595 249.035 243.76 248.871H243.925C244.09 248.871 244.255 248.706 244.419 248.706C244.419 248.706 244.584 248.706 244.584 248.541C244.749 248.541 244.914 248.376 245.079 248.376H245.243L246.892 240.465L245.243 239.476L244.255 241.454Z" fill="#C5C5C5"/>
<path d="M241.123 233.378L247.222 234.202L254.144 225.302L254.309 225.467L253.979 224.148C252.166 226.621 249.694 229.587 248.375 230.576C247.881 231.235 247.881 231.235 247.881 231.235C247.881 231.235 247.881 231.235 247.386 231.235C246.068 231.73 243.431 231.565 241.618 231.235L241.123 233.378Z" fill="#FF9D6F"/>
<path d="M258.924 202.393C258.924 201.898 258.924 201.569 258.924 201.074C258.924 201.074 258.924 201.074 258.924 200.909C258.759 202.393 258.594 203.876 258.429 205.195V205.03C258.429 205.03 258.429 205.689 258.265 206.513C258.429 205.524 258.429 204.7 258.594 204.041C258.759 203.711 258.759 203.052 258.924 202.393Z" fill="#89543C"/>
<path d="M238.322 219.863C238.487 221.017 238.981 222.336 239.311 223.16C239.311 222.006 238.652 220.687 238.322 219.863Z" fill="#89543C"/>
<path d="M249.364 203.052C246.727 206.184 239.31 213.106 238.981 213.436L237.992 214.589L238.157 218.545C238.157 218.875 238.321 219.204 238.321 219.699C238.651 220.358 239.145 221.841 239.31 222.995C239.475 223.16 239.475 223.325 239.64 223.489C240.134 224.313 241.288 224.478 242.607 223.819C243.266 223.325 244.09 222.665 244.914 221.676C246.397 219.699 247.221 219.039 247.551 218.875C247.716 218.71 247.716 218.875 247.716 218.875L247.881 218.71C247.881 218.71 247.881 218.545 248.045 218.545C248.375 218.38 249.034 218.05 250.683 218.38C251.507 218.545 252.331 218.215 252.99 217.886C254.308 217.062 255.297 215.743 255.957 214.26C256.616 212.612 257.11 209.48 257.44 207.667L257.11 206.678C256.946 206.349 253.979 200.25 253.484 196.295C253.484 196.625 252.001 199.921 249.364 203.052Z" fill="#FF9D6F"/>
<path d="M243.596 194.811C239.806 198.437 235.52 208.326 235.356 210.139C235.191 211.952 236.509 218.709 236.509 219.039L237.169 219.204L237.993 219.533V218.874L237.828 214.919L238.817 213.765C239.146 213.435 246.728 206.513 249.2 203.382C251.837 200.25 253.32 196.954 253.32 196.789C253.815 200.745 256.782 206.843 256.946 207.172L257.276 208.161L257.77 209.809C257.77 209.645 257.935 207.996 258.265 205.689C258.43 204.371 258.595 202.887 258.759 201.404C259.089 198.767 259.419 196.459 259.419 195.965C259.583 194.811 257.935 192.669 257.77 192.669C255.793 191.35 249.365 191.515 245.245 193.822C244.75 193.822 244.256 194.317 243.596 194.811Z" fill="#1E1526"/>
<path d="M266.01 227.445C266.01 227.28 266.175 227.115 266.175 227.115C266.175 227.28 266.175 227.28 266.01 227.445Z" fill="#FF6600"/>
<path d="M255.462 226.126C256.287 226.126 257.605 226.291 258.924 226.456C261.231 226.456 264.527 226.456 266.34 226.786C270.79 218.874 273.427 210.139 273.427 202.228C273.427 185.747 261.725 178.989 247.222 187.395C232.883 195.636 221.181 215.908 221.181 232.389C221.181 240.3 223.983 246.069 228.268 248.871C231.235 244.915 237.992 237.334 238.322 237.004C238.487 236.839 238.651 236.674 238.816 236.51L238.651 236.345L240.135 233.543L240.794 233.708L241.288 231.4C240.135 231.071 239.311 230.741 239.146 230.247C238.816 229.423 238.322 227.774 237.992 225.797C237.662 225.797 237.333 225.632 236.838 224.973C235.849 223.489 235.355 219.699 236.344 219.204C236.344 218.874 235.025 212.117 235.19 210.304C235.355 208.656 239.805 198.602 243.431 194.976C243.925 194.482 244.585 193.987 245.244 193.658C249.364 191.35 255.792 191.186 257.77 192.504C257.935 192.669 259.418 194.647 259.418 195.8C259.418 196.295 259.088 198.602 258.759 201.239C258.759 201.734 258.759 202.228 258.759 202.558C258.759 203.217 258.594 203.876 258.594 204.536C258.429 205.195 258.429 206.019 258.264 207.008C258.429 206.678 258.759 206.348 259.088 206.184C260.077 205.524 259.583 209.974 258.594 212.611C258.099 213.93 257.77 214.589 257.275 214.919C256.946 217.226 256.451 219.369 256.122 220.687C255.792 221.511 254.968 222.995 253.814 224.643L254.144 225.961L255.462 226.126Z" fill="url(#paint11_linear_27_1337)"/>
<path d="M297.161 137.785L297.655 295.348L197.942 352.869L197.448 195.306L297.161 137.785ZM247.387 187.23C233.048 195.471 221.346 215.743 221.346 232.224C221.346 248.541 232.718 255.298 246.892 247.552C247.057 247.387 247.387 247.387 247.552 247.222C248.046 246.893 248.54 246.728 249.035 246.398C249.2 246.398 249.2 246.234 249.365 246.234C249.365 246.234 249.365 246.234 249.529 246.234C263.044 237.334 273.757 218.215 273.592 202.393C273.427 185.582 261.726 178.824 247.387 187.23ZM223.983 277.054V280.68L270.955 253.65V250.024L223.983 277.054ZM258.265 252.826V249.2L236.674 261.726V265.352L258.265 252.826ZM287.931 259.089L266.505 271.45V273.593L287.931 261.232V259.089ZM278.537 293.041C278.537 294.03 279.196 294.36 280.02 293.865L286.777 289.91C287.602 289.415 288.261 288.261 288.261 287.272V279.361C288.261 278.372 287.602 278.043 286.777 278.537L280.02 282.493C279.196 282.987 278.537 284.141 278.537 285.13V293.041ZM273.592 282.163L287.931 273.922V271.78L273.592 280.021V282.163ZM254.803 286.778L288.096 267.66V265.517L254.803 284.635V286.778ZM254.639 274.252L287.931 255.134V252.991L254.639 272.11V274.252ZM206.842 336.222C206.842 337.047 207.337 337.376 208.161 337.047L241.948 317.434C242.607 317.104 243.266 316.115 243.266 315.291V301.776C243.266 300.952 242.772 300.622 241.948 301.117L208.161 320.73C207.502 321.06 206.842 322.048 206.842 322.872V336.222ZM206.842 314.467C206.842 315.291 207.337 315.621 208.161 315.126L241.948 295.513C242.607 295.184 243.266 294.195 243.266 293.371V279.856C243.266 279.032 242.772 278.702 241.948 279.197L208.161 298.81C207.502 299.139 206.842 300.128 206.842 300.952V314.467Z" fill="white"/>
<path d="M287.932 261.232L266.506 273.593V271.45L287.932 259.089V261.232Z" fill="#FF6600"/>
<path d="M264.528 230.082C264.528 229.917 264.692 229.917 264.692 229.752C264.528 229.917 264.528 229.917 264.528 230.082Z" fill="#FF6600"/>
<path d="M260.902 235.191C261.067 235.026 261.067 235.026 261.231 234.861C261.067 234.861 260.902 235.026 260.902 235.191Z" fill="#FF6600"/>
<path d="M260.572 235.356C260.572 235.191 260.737 235.191 260.737 235.026C260.737 235.191 260.737 235.356 260.572 235.356Z" fill="#FF6600"/>
<path d="M241.618 249.695C241.783 249.695 241.948 249.53 242.113 249.53C242.113 249.53 241.948 249.695 241.618 249.695Z" fill="#FF6600"/>
<path d="M247.222 234.861L247.387 235.026L247.222 234.861Z" fill="#7D7D7E"/>
<path d="M238.157 218.71V219.369L237.333 219.039C237.498 220.687 237.827 223.16 238.322 225.467C238.651 227.445 238.981 229.093 239.475 229.917C239.805 230.411 240.629 230.741 241.618 231.071C243.431 231.565 246.068 231.565 247.387 231.071C247.881 231.071 247.881 231.071 247.881 231.071C247.881 231.071 247.881 231.071 248.375 230.412C249.694 229.258 252.166 226.456 253.979 223.984C255.133 222.336 256.122 220.852 256.287 220.028C256.616 218.874 257.111 216.732 257.44 214.424C257.77 211.623 258.1 208.491 258.264 206.678C258.429 205.689 258.429 205.195 258.429 205.195V205.36C258.1 207.667 257.935 209.315 257.935 209.48L257.44 207.832C257.111 209.645 256.616 212.776 255.957 214.424C255.463 215.908 254.309 217.226 252.99 218.05C252.331 218.545 251.507 218.71 250.683 218.545C249.2 218.38 248.375 218.545 248.046 218.71C247.881 218.874 247.881 218.874 247.881 218.874L247.716 219.039C247.716 219.039 247.716 219.039 247.551 219.039C247.222 219.204 246.563 219.863 244.914 221.841C244.09 222.995 243.266 223.654 242.607 223.984C241.288 224.808 240.3 224.478 239.64 223.654C239.475 223.489 239.475 223.324 239.311 223.16C238.981 222.336 238.651 221.017 238.322 219.863C238.322 219.534 238.157 219.039 238.157 218.71Z" fill="#1E1526"/>
<path d="M254.145 225.302L247.222 234.202L247.552 234.367L247.222 234.862L247.387 235.026L249.365 236.839L250.354 237.828L255.628 226.291L255.463 226.126L254.309 225.467L254.145 225.302Z" fill="#898989"/>
<path d="M236.839 250.684C237.004 250.684 237.004 250.684 237.168 250.684C237.168 250.519 237.004 250.684 236.839 250.684Z" fill="#FF6600"/>
<path d="M231.234 249.86C231.399 249.86 231.399 249.86 231.564 250.024C231.399 250.024 231.399 250.024 231.234 249.86Z" fill="#FF6600"/>
<path d="M230.74 249.695H230.905C230.905 249.86 230.905 249.695 230.74 249.695Z" fill="#FF6600"/>
<path d="M241.124 233.378L240.3 233.213L238.817 236.015L239.146 236.18L244.255 241.454L245.08 239.476L247.222 234.862L247.552 234.367L247.222 234.202L241.124 233.378Z" fill="#898989"/>
<path d="M230.411 249.53C230.411 249.53 230.576 249.53 230.576 249.695L230.411 249.53Z" fill="#FF6600"/>
<path d="M230.082 249.53C230.082 249.53 230.247 249.53 230.247 249.695C230.247 249.53 230.247 249.53 230.082 249.53Z" fill="#FF6600"/>
<path d="M229.917 249.365C229.917 249.365 230.082 249.365 230.082 249.53C230.082 249.365 230.082 249.365 229.917 249.365Z" fill="#FF6600"/>
<path d="M229.586 249.2C229.751 249.2 229.916 249.365 229.916 249.365C229.751 249.365 229.751 249.2 229.586 249.2Z" fill="#FF6600"/>
<path d="M229.422 249.036C229.422 249.036 229.586 249.036 229.586 249.2C229.586 249.2 229.422 249.2 229.422 249.036Z" fill="#FF6600"/>
<path d="M228.927 248.871C228.927 248.871 229.092 248.871 229.092 249.035C229.092 248.871 229.092 248.871 228.927 248.871Z" fill="#FF6600"/>
<path d="M238.651 236.674C238.322 237.004 231.564 244.585 228.598 248.541C228.598 248.541 228.762 248.541 228.762 248.706C228.762 248.706 228.927 248.706 228.927 248.871C228.927 248.871 229.092 248.871 229.092 249.035C229.092 249.035 229.257 249.035 229.257 249.2C229.257 249.2 229.422 249.2 229.422 249.365C229.586 249.365 229.751 249.53 229.751 249.53C229.751 249.53 229.916 249.53 229.916 249.695C229.916 249.695 230.081 249.695 230.081 249.86C230.081 249.86 230.246 249.859 230.246 250.024C230.246 250.024 230.411 250.024 230.411 250.189H230.575C230.74 250.189 230.74 250.189 230.905 250.354C231.07 250.354 231.07 250.354 231.235 250.519C231.399 250.519 231.399 250.519 231.564 250.684H231.729H231.894H232.059C232.224 250.684 232.224 250.684 232.388 250.684H232.553C232.718 250.684 232.883 250.684 233.048 250.684H233.212C233.377 250.684 233.377 250.684 233.542 250.684H233.707C233.872 250.684 233.872 250.684 234.036 250.684H234.201C234.366 250.684 234.366 250.684 234.531 250.684H234.696C234.861 250.684 235.025 250.684 235.19 250.684H235.355C235.52 250.684 235.52 250.684 235.685 250.684H235.849C236.014 250.684 236.014 250.684 236.179 250.684H236.344C236.509 250.684 236.509 250.684 236.674 250.684H236.838C237.003 250.684 237.168 250.684 237.333 250.684H237.498C237.662 250.684 237.662 250.684 237.827 250.684H237.992C238.157 250.684 238.157 250.684 238.322 250.684H238.486C238.651 250.684 238.816 250.684 238.981 250.519H239.146C239.311 250.519 239.475 250.519 239.475 250.354H239.64C239.805 250.354 239.805 250.354 239.97 250.189H240.135C240.299 250.189 240.299 250.189 240.464 250.024H240.629C240.794 250.024 240.959 249.86 241.124 249.86L238.651 236.674Z" fill="#001030"/>
<path d="M236.674 218.874C235.685 219.534 236.18 223.159 237.169 224.643C237.663 225.302 237.993 225.632 238.322 225.467C237.993 223.159 237.663 220.687 237.333 219.039L236.674 218.874Z" fill="#FF9D6F"/>
<path d="M188.218 371.658C187.229 372.152 186.405 373.635 186.405 374.789C186.405 375.943 187.229 376.437 188.218 375.778C189.207 375.284 190.031 373.8 190.031 372.646C190.031 371.493 189.207 370.998 188.218 371.658Z" fill="url(#paint12_linear_27_1337)"/>
<path d="M283.975 311.5L174.209 374.954V389.293L197.777 375.613C199.59 374.624 201.403 372.647 202.722 370.504L206.018 365.065C207.172 363.087 208.82 361.274 210.633 360.285L284.14 317.928L283.975 311.5ZM179.483 380.722C178.494 381.217 177.67 380.887 177.67 379.734C177.67 378.58 178.494 377.261 179.483 376.602C180.472 376.108 181.296 376.437 181.296 377.591C181.296 378.91 180.472 380.228 179.483 380.722ZM196.953 370.669C195.964 371.163 195.14 370.834 195.14 369.68C195.14 368.526 195.964 367.208 196.953 366.548C197.942 366.054 198.766 366.384 198.766 367.537C198.766 368.691 197.942 370.174 196.953 370.669ZM188.218 375.778C187.229 376.272 186.405 375.943 186.405 374.789C186.405 373.635 187.229 372.317 188.218 371.658C189.207 371.163 190.031 371.493 190.031 372.647C190.031 373.8 189.207 375.119 188.218 375.778Z" fill="url(#paint13_linear_27_1337)"/>
<path d="M179.483 376.767C178.495 377.261 177.67 378.744 177.67 379.898C177.67 381.052 178.495 381.546 179.483 380.887C180.472 380.393 181.296 378.909 181.296 377.756C181.296 376.602 180.472 376.107 179.483 376.767Z" fill="url(#paint14_linear_27_1337)"/>
<path d="M196.953 366.548C195.964 367.043 195.14 368.526 195.14 369.68C195.14 370.833 195.964 371.328 196.953 370.669C197.942 370.174 198.766 368.691 198.766 367.537C198.601 366.548 197.942 366.054 196.953 366.548Z" fill="url(#paint15_linear_27_1337)"/>
<path d="M283.976 311.5V317.928L210.468 360.285C208.82 361.274 207.172 362.922 205.853 365.065L202.557 370.504C201.239 372.647 199.426 374.624 197.613 375.613L174.044 389.293L174.209 446.978L283.976 383.524V311.5Z" fill="url(#paint16_linear_27_1337)"/>
<path d="M256.946 356L250.519 359.626C250.519 367.372 255.958 370.504 262.715 366.713C263.045 366.548 263.209 366.383 263.539 366.219C269.637 362.263 274.746 353.858 275.076 346.606C275.571 338.2 269.967 334.574 262.88 338.695V346.111C266.176 344.298 268.813 345.946 268.648 349.737C268.483 353.198 266.011 357.483 263.045 359.296L262.88 359.461C259.583 361.109 256.946 359.626 256.946 356Z" fill="white"/>
<path d="M262.879 338.695C256.122 342.485 250.518 351.88 250.518 359.626L256.946 356C256.946 352.374 259.583 347.924 262.715 346.111L262.879 338.695Z" fill="url(#paint17_linear_27_1337)"/>
<path d="M212.61 380.887L227.773 372.317L227.609 409.565L212.446 418.135L212.61 380.887Z" fill="white"/>
<path d="M258.099 382.206L257.934 392.424L273.097 383.689L273.262 373.635L258.099 382.206Z" fill="white"/>
<path d="M235.026 386.326V405.445L250.188 396.874V377.756L235.026 386.326Z" fill="white"/>
<path d="M191.185 386.491L190.855 430.332L206.018 421.761L206.348 377.92L191.185 386.491Z" fill="white"/>
<path d="M470.876 542.9C436.56 542.9 408.741 525.486 408.741 504.004C408.741 482.522 436.56 465.108 470.876 465.108C505.192 465.108 533.011 482.522 533.011 504.004C533.011 525.486 505.192 542.9 470.876 542.9Z" fill="url(#paint18_linear_27_1337)"/>
<path d="M439.891 463.624C454.065 455.384 472.854 454.724 488.347 459.01C495.928 461.152 504.004 464.943 508.619 471.7C511.585 475.986 511.585 480.436 511.585 485.38C511.585 489.665 511.585 493.95 511.585 498.4C511.585 491.313 506.311 485.874 500.708 482.249C494.939 478.458 488.017 476.315 481.095 475.161C466.921 472.854 450.604 474.337 438.243 482.413C432.639 486.039 427.53 491.643 427.53 498.73C427.53 493.456 427.53 488.182 427.53 483.073C427.53 480.436 427.695 477.799 428.848 475.326C430.826 470.052 435.276 466.426 439.891 463.624Z" fill="url(#paint19_linear_27_1337)"/>
<path d="M417.97 481.919C418.465 489.665 423.904 495.928 430.002 500.213C437.419 505.323 446.319 508.289 455.054 509.608C472.524 512.574 492.961 510.597 508.124 500.708C514.882 496.258 521.145 489.336 521.145 480.765C521.145 486.698 521.309 492.797 521.145 498.73C520.815 512.574 505.982 520.815 494.28 524.606C479.941 529.221 463.954 529.55 449.45 526.089C437.419 523.123 421.761 516.2 418.465 502.85C417.641 499.224 417.97 495.269 417.97 491.643C417.97 488.182 417.97 484.556 417.97 481.095C417.806 481.424 417.806 481.589 417.97 481.919Z" fill="url(#paint20_linear_27_1337)"/>
<path d="M433.133 459.834C412.86 471.536 412.86 490.489 432.968 502.191C453.075 513.893 485.709 513.893 505.981 502.191C526.088 490.325 526.253 471.371 506.146 459.834C486.038 448.132 453.24 448.132 433.133 459.834ZM499.059 498.071C482.577 507.63 456.042 507.63 439.56 498.071C423.244 488.512 423.244 473.184 439.725 463.624C456.207 454.065 482.742 454.065 499.223 463.624C515.705 473.184 515.54 488.676 499.059 498.071Z" fill="#DCDCDC"/>
<path d="M433.133 459.834C412.86 471.536 412.86 490.489 432.968 502.191C453.075 513.893 485.709 513.893 505.981 502.191C526.088 490.325 526.253 471.371 506.146 459.834C486.038 448.132 453.24 448.132 433.133 459.834ZM499.059 498.071C482.577 507.63 456.042 507.63 439.56 498.071C423.244 488.512 423.244 473.184 439.725 463.624C456.207 454.065 482.742 454.065 499.223 463.624C515.705 473.184 515.54 488.676 499.059 498.071Z" fill="#F2F8FD"/>
<path d="M499.389 469.063C506.311 473.184 510.267 478.293 511.256 483.567C510.267 488.841 506.147 494.115 499.06 498.071C482.578 507.63 456.043 507.63 439.561 498.071C432.639 493.95 428.684 488.841 427.695 483.567C428.684 478.293 432.804 473.019 439.891 469.063C456.373 459.669 482.908 459.669 499.389 469.063Z" fill="url(#paint21_linear_27_1337)"/>
<path d="M467.415 209.15V212.941C467.415 215.084 465.108 216.567 463.13 215.413L445.495 205.195C444.671 204.7 444.011 203.711 444.011 202.722V198.932C444.011 196.789 446.319 195.306 448.297 196.459L465.932 206.678C466.921 207.172 467.415 208.161 467.415 209.15Z" fill="#FF6600"/>
<path d="M523.287 259.748V263.539C523.287 265.682 520.979 267.165 519.001 266.011L445.494 223.819C444.67 223.324 444.011 222.335 444.011 221.346V217.556C444.011 215.413 446.318 213.93 448.296 215.083L521.803 257.276C522.792 257.771 523.287 258.595 523.287 259.748Z" fill="#FF6600"/>
<g opacity="0.53">
<path d="M492.961 279.526V283.317C492.961 285.46 490.654 286.943 488.676 285.789L445.494 261.067C444.67 260.572 444.011 259.584 444.011 258.595V254.804C444.011 252.661 446.318 251.178 448.296 252.332L491.478 277.054C492.466 277.548 492.961 278.537 492.961 279.526Z" fill="#FF6600"/>
</g>
<path d="M511.915 271.78V275.571C511.915 277.713 509.607 279.197 507.629 278.043L445.494 242.278C444.67 241.784 444.011 240.795 444.011 239.806V236.015C444.011 233.873 446.318 232.389 448.296 233.543L510.431 269.143C511.255 269.802 511.915 270.791 511.915 271.78Z" fill="#FF6600"/>
<path d="M461.645 334.41L459.338 340.013C459.833 340.508 460.327 341.002 460.657 341.497C461.975 342.98 463.458 344.134 464.942 345.287C466.26 346.276 467.414 347.1 468.733 347.76C469.886 348.419 471.04 348.913 472.029 349.408L471.04 341.497C470.216 341.167 469.557 340.837 468.733 340.343C467.579 339.684 466.425 338.86 465.271 337.871C464.612 337.212 463.953 336.552 463.129 335.893C462.634 335.399 462.14 334.904 461.645 334.41Z" fill="#FF6600"/>
<g opacity="0.56">
<path d="M448.461 301.941C444.176 311.83 449.121 328.476 459.339 340.013L461.647 334.41C454.724 326.334 451.428 314.962 454.395 308.039C456.867 302.436 462.636 301.612 468.734 305.073C470.217 305.897 471.7 307.05 473.184 308.369C473.513 308.699 474.008 309.028 474.337 309.523C482.249 317.599 486.039 330.124 482.908 337.376C480.765 342.321 476.15 343.474 470.876 341.497L471.865 349.408C470.711 348.913 469.558 348.419 468.569 347.76C477.304 352.704 485.545 351.55 488.841 343.639C493.291 333.256 487.852 315.621 476.645 304.084C476.315 303.754 475.821 303.26 475.491 302.93C475.326 302.765 475.326 302.765 475.161 302.6C473.019 300.458 470.711 298.81 468.569 297.656C460.163 292.712 451.923 294.03 448.461 301.941Z" fill="url(#paint22_linear_27_1337)"/>
</g>
<g opacity="0.72">
<path d="M468.074 359.626C459.339 354.682 451.098 355.836 447.802 363.747C443.517 373.636 448.461 390.282 458.68 401.819L460.987 396.215C454.065 388.139 450.769 376.767 453.735 369.845C456.207 364.241 461.976 363.417 468.074 366.878C469.557 367.702 471.041 368.856 472.524 370.174L474.832 364.571C472.689 362.593 470.382 360.945 468.074 359.626Z" fill="url(#paint23_linear_27_1337)"/>
</g>
<path d="M474.996 364.9L472.688 370.504C473.018 370.834 473.512 371.163 473.842 371.658C481.753 379.734 485.544 392.26 482.412 399.512C482.248 399.841 482.248 400.006 482.083 400.336C482.083 400.5 481.918 400.5 481.918 400.665C479.611 404.621 475.325 405.61 470.381 403.797C469.557 403.467 468.898 403.137 468.073 402.643C467.909 402.478 467.579 402.478 467.414 402.313C467.085 402.149 466.755 401.819 466.425 401.654L466.261 401.489C465.601 400.995 464.942 400.5 464.448 400.006L464.283 399.841C464.118 399.676 463.788 399.512 463.623 399.182C463.459 399.182 463.459 399.017 463.294 399.017C462.964 398.687 462.635 398.523 462.47 398.193C461.975 397.699 461.481 397.204 461.151 396.71L458.844 402.313C459.338 402.808 459.833 403.302 460.162 403.797C460.657 404.291 460.986 404.621 461.481 405.115C461.646 405.28 461.646 405.28 461.811 405.445C462.14 405.774 462.47 406.104 462.799 406.269C462.964 406.434 462.964 406.434 463.129 406.599C463.953 407.423 464.942 408.082 465.766 408.576L465.931 408.741C466.261 409.071 466.755 409.236 467.085 409.565L467.249 409.73C467.579 409.895 467.744 410.06 468.073 410.224C468.733 410.554 469.392 410.884 470.051 411.213C470.546 411.378 471.04 411.708 471.535 411.873C478.951 414.839 485.544 413.026 488.511 406.104C492.961 395.721 487.522 378.086 476.314 366.549C475.82 365.56 475.325 365.23 474.996 364.9Z" fill="url(#paint24_linear_27_1337)"/>
<path opacity="0.57" d="M469.722 492.467C501.861 492.467 528.067 478.952 528.231 462.471C528.231 445.824 502.026 432.145 469.557 431.98C469.393 431.98 469.393 431.98 469.228 431.98C437.089 431.98 410.883 445.495 410.718 461.976C410.718 478.623 436.924 492.302 469.393 492.467C469.557 492.467 469.722 492.467 469.722 492.467ZM469.228 432.969C469.393 432.969 469.393 432.969 469.557 432.969C501.367 433.134 527.243 446.319 527.243 462.471C527.243 478.623 501.202 491.643 469.393 491.643C437.583 491.478 411.707 478.293 411.707 462.141C411.872 445.989 437.583 432.969 469.228 432.969Z" fill="#F9FBFC"/>
<path opacity="0.57" d="M416.157 479.776C415.992 478.787 415.828 477.963 415.828 476.974C415.828 475.986 415.992 475.161 416.157 474.337V284.8H523.122V479.941H522.957C520.485 493.95 497.411 504.828 469.557 504.663C441.704 504.499 418.959 493.621 416.157 479.776Z" fill="url(#paint25_linear_27_1337)"/>
<path opacity="0.57" d="M415.992 472.03C415.992 487.193 439.89 499.554 469.557 499.554C499.224 499.719 523.122 487.522 523.287 472.359C523.287 457.197 499.388 444.835 469.722 444.835C440.055 444.671 415.992 456.867 415.992 472.03Z" fill="url(#paint26_linear_27_1337)"/>
<path d="M512.245 407.588C511.915 413.521 516.365 418.795 522.298 419.125C528.232 419.454 533.506 415.004 533.835 409.071C534.165 403.137 529.715 397.863 523.782 397.534C517.848 397.204 512.739 401.654 512.245 407.588Z" fill="url(#paint27_radial_27_1337)"/>
<path d="M404.785 461.811C404.621 465.108 407.093 468.074 410.389 468.239C413.685 468.404 416.652 465.932 416.817 462.636C416.982 459.339 414.51 456.373 411.213 456.208C407.917 455.878 404.95 458.35 404.785 461.811Z" fill="url(#paint28_radial_27_1337)"/>
<path d="M410.884 319.576C410.719 322.872 413.191 325.839 416.487 326.004C419.784 326.169 422.75 323.696 422.915 320.4C423.08 317.104 420.608 314.137 417.311 313.972C414.015 313.808 411.048 316.28 410.884 319.576Z" fill="url(#paint29_radial_27_1337)"/>
<path d="M250.518 10.2188L247.387 21.0965L238.981 26.7002L245.409 29.1725L243.431 39.7206L250.518 30.491L257.77 31.4799L255.627 23.2391L262.055 13.3502L253.65 17.4706L250.518 10.2188Z" fill="url(#paint30_linear_27_1337)"/>
<path d="M221.18 27.1946L218.049 38.0724L209.643 43.6761L216.071 46.1483L214.093 56.6964L221.18 47.4668L228.432 48.4557L226.29 40.215L232.882 30.1612L224.312 34.4464L221.18 27.1946Z" fill="url(#paint31_linear_27_1337)"/>
<path d="M191.844 44.1707L188.712 55.0484L180.307 60.4873L186.734 63.1244L184.757 73.6725L191.844 64.4429L199.095 65.4318L197.118 57.191L203.545 47.1373L194.975 51.2577L191.844 44.1707Z" fill="url(#paint32_linear_27_1337)"/>
<path d="M162.507 61.1465L159.376 71.8594L150.97 77.4632L157.398 79.9354L155.42 90.6483L162.507 81.2539L169.759 82.2428L167.781 74.002L174.209 64.1132L165.803 68.2335L162.507 61.1465Z" fill="url(#paint33_linear_27_1337)"/>
<path d="M133.169 77.9575L130.038 88.8353L121.632 94.439L128.06 96.9112L126.082 107.459L133.169 98.2297L140.421 99.2186L138.443 90.9779L144.871 81.089L136.466 85.2094L133.169 77.9575Z" fill="url(#paint34_linear_27_1337)"/>
<path d="M296.007 552.459L357.648 588.389C359.79 589.708 362.427 589.708 364.735 588.389L426.87 552.624C428.353 551.8 428.353 549.822 426.87 548.998L365.394 513.234C363.087 511.915 360.285 511.915 357.977 513.234L296.172 548.998C294.688 549.658 294.688 551.8 296.007 552.459Z" fill="url(#paint35_linear_27_1337)"/>
<path d="M284.635 530.869L346.275 566.634C348.418 567.952 351.055 567.952 353.362 566.634L415.333 530.869C416.816 530.045 416.816 528.067 415.333 527.243L353.857 491.478C351.549 490.16 348.748 490.16 346.44 491.478L284.635 527.243C283.151 528.067 283.151 530.045 284.635 530.869Z" fill="url(#paint36_linear_27_1337)"/>
<path d="M267.163 492.302V500.213L335.562 539.934V532.023L267.163 492.302Z" fill="url(#paint37_linear_27_1337)"/>
<path d="M335.562 532.023V539.934L404.29 500.213V492.302L335.562 532.023Z" fill="url(#paint38_linear_27_1337)"/>
<path d="M267.164 492.302L335.562 532.023L404.29 492.302L335.892 452.582L267.164 492.302Z" fill="#F2F8FD"/>
<path d="M356 486.204C356 486.204 356.824 491.643 355.67 493.786C354.681 495.763 350.725 497.247 348.088 495.269C345.287 493.291 340.672 488.347 340.672 488.347C340.672 488.347 332.761 484.226 332.101 481.919C331.442 479.612 334.079 477.799 336.387 478.293C338.529 478.787 344.957 482.743 347.924 482.743C350.89 482.743 355.011 483.567 356 486.204Z" fill="#001D59"/>
<path d="M364.075 370.504C364.075 370.504 357.153 484.721 356.329 488.017C355.505 491.313 346.44 493.291 344.792 488.017C343.803 484.721 341.166 379.074 341.166 379.074L364.075 370.504Z" fill="#FF6600"/>
<path d="M334.244 495.599C334.574 495.928 334.903 496.423 334.903 496.917C334.903 498.565 334.903 502.026 333.914 503.345C332.761 505.158 329.135 506.971 325.344 504.993C322.213 503.18 312.324 495.928 310.346 494.28C309.192 493.291 308.533 492.138 308.368 491.149C308.203 490.325 308.533 489.501 309.357 489.006C310.676 488.347 313.148 487.688 315.29 488.347C318.587 489.501 322.707 492.962 327.157 492.797C330.289 492.632 333.09 494.61 334.244 495.599Z" fill="#001D59"/>
<path d="M318.916 374.295C319.411 369.515 325.014 368.032 330.289 369.68C340.342 369.185 355.67 369.515 356.329 377.261C357.153 388.798 351.714 396.874 346.605 402.478C342.814 406.598 340.177 414.509 339.189 418.3C338.2 448.626 336.222 491.313 335.068 495.434C333.09 502.026 323.037 501.697 322.707 495.269C320.564 473.513 318.916 374.295 318.916 374.295Z" fill="#FF6600"/>
<path d="M318.257 305.897C324.685 295.513 338.694 292.547 338.694 292.547C355.835 289.085 361.274 295.348 361.274 295.348C361.274 295.348 366.877 301.941 366.877 310.841C366.877 316.939 366.218 340.178 365.724 354.187C365.889 363.911 366.218 374.46 366.383 376.932C366.877 381.711 350.561 395.721 320.729 387.974C317.433 385.997 315.95 383.689 315.95 383.689L315.62 347.595C315.455 345.617 315.29 343.474 315.29 341.167C313.807 317.269 318.257 305.897 318.257 305.897Z" fill="#001D59"/>
<path d="M263.374 314.467L262.55 310.182L262.385 304.578C262.385 304.578 261.396 303.424 260.407 304.248C259.254 304.908 259.254 306.721 259.254 306.721L257.935 308.369L263.374 314.467Z" fill="#FF7C40"/>
<path d="M361.273 295.184C361.273 295.184 373.799 302.435 375.612 335.234C373.964 341.332 364.405 344.463 357.153 339.684C349.736 334.904 357.483 300.787 361.273 295.184Z" fill="#001D59"/>
<path d="M253.65 305.238C253.65 305.238 250.848 309.193 250.518 311.83C250.188 314.467 253.65 319.741 255.627 321.225C257.605 322.708 262.055 323.202 262.055 323.202C262.055 323.202 285.294 338.86 289.25 339.025C293.04 339.189 298.644 337.047 298.15 330.784C298.15 330.784 269.637 318.093 265.681 315.951C261.89 313.808 258.924 305.897 257.44 304.249C257.44 304.249 254.474 300.293 253.979 299.963C253.485 299.469 250.353 298.48 250.353 298.48C250.353 298.48 248.046 297.656 247.716 297.821C247.387 297.986 247.222 299.469 248.54 300.458C249.859 301.447 252.331 302.271 252.331 302.271L253.65 305.238Z" fill="#FF9D6F"/>
<path d="M352.044 280.021C352.044 280.021 350.561 288.591 352.044 292.547C352.374 294.524 343.639 301.117 336.057 299.469C331.607 298.48 331.772 296.172 331.772 296.172C331.772 296.172 335.563 289.91 334.903 284.141C334.574 278.208 346.935 278.702 352.044 280.021Z" fill="#FF7C40"/>
<path d="M323.551 267.036C321.044 256.031 327.933 245.077 338.938 242.571C349.943 240.064 360.896 246.953 363.403 257.958C365.91 268.963 359.021 279.916 348.016 282.423C337.011 284.93 326.058 278.041 323.551 267.036Z" fill="#FF9D6F"/>
<path d="M323.201 263.869C323.201 263.869 322.542 283.152 326.992 287.273C331.442 291.393 338.694 284.636 349.572 281.999C360.449 279.197 340.672 257.936 340.672 257.936L323.201 263.869Z" fill="#FF9D6F"/>
<path d="M331.278 245.245C331.278 245.245 323.861 246.893 321.718 257.935C322.707 262.715 329.3 258.924 331.937 265.352C334.409 271.78 336.057 273.593 336.057 273.593L337.706 272.934C337.706 272.934 337.706 267.824 340.013 267.824C342.32 267.824 342.815 273.922 341.661 276.395C340.343 278.867 337.541 280.185 337.541 280.185C337.541 280.185 340.672 285.624 342.32 286.284C343.968 286.943 349.737 285.624 351.88 284.635C354.187 283.647 358.307 279.197 361.439 274.087C364.57 268.978 367.537 260.078 365.559 253.98C363.581 247.882 359.131 246.398 359.131 246.398C359.131 246.398 356.659 242.937 352.044 241.289C347.594 239.806 339.354 239.311 331.278 245.245Z" fill="url(#paint39_linear_27_1337)"/>
<path d="M327.816 296.832L333.09 293.865C333.09 293.865 346.77 292.547 351.55 289.415L354.022 293.041C354.022 293.041 350.561 299.634 341.826 300.458C333.09 301.282 329.135 297.985 329.135 297.985L327.816 296.832Z" fill="white"/>
<path d="M270.461 317.104L266.176 315.291C266.176 315.291 260.572 317.434 261.891 323.861L265.681 326.334L270.461 317.104Z" fill="white"/>
<path d="M327.817 296.832C327.817 296.832 318.422 302.765 314.796 305.402C311.171 308.039 302.106 329.96 302.106 329.96L269.637 316.28C269.637 316.28 262.88 320.895 265.022 327.158C265.022 327.158 295.513 347.1 303.259 348.584C311.006 350.067 329.135 319.741 329.135 319.741C329.135 319.741 339.354 311.665 327.817 296.832Z" fill="#001D59"/>
<path d="M337.046 191.845C331.113 179.154 315.95 173.88 303.259 179.813C290.568 185.747 285.294 200.91 291.228 213.6C296.667 224.973 309.522 230.576 321.389 226.95L328.311 231.73L328.97 223.16C338.694 216.072 342.32 203.052 337.046 191.845Z" fill="url(#paint40_linear_27_1337)"/>
<path d="M315.455 213.93L325.344 206.678L321.883 202.063L316.444 206.019L305.896 192.504L301.446 195.965L315.455 213.93Z" fill="white"/>
</g>
<defs>
<linearGradient id="paint0_linear_27_1337" x1="193.144" y1="449.332" x2="193.144" y2="-44.5125" gradientUnits="userSpaceOnUse">
<stop stop-color="#282A57" stop-opacity="0"/>
<stop offset="0.0384245" stop-color="#333560" stop-opacity="0.0384245"/>
<stop offset="0.3035" stop-color="#7B7C98" stop-opacity="0.3035"/>
<stop offset="0.5416" stop-color="#B4B4C4" stop-opacity="0.5416"/>
<stop offset="0.7443" stop-color="#DDDDE4" stop-opacity="0.7443"/>
<stop offset="0.9037" stop-color="#F6F6F8" stop-opacity="0.9037"/>
<stop offset="1" stop-color="white"/>
</linearGradient>
<linearGradient id="paint1_linear_27_1337" x1="177.535" y1="449.332" x2="177.535" y2="-44.5125" gradientUnits="userSpaceOnUse">
<stop stop-color="#282A57" stop-opacity="0"/>
<stop offset="0.0384245" stop-color="#333560" stop-opacity="0.0384245"/>
<stop offset="0.3035" stop-color="#7B7C98" stop-opacity="0.3035"/>
<stop offset="0.5416" stop-color="#B4B4C4" stop-opacity="0.5416"/>
<stop offset="0.7443" stop-color="#DDDDE4" stop-opacity="0.7443"/>
<stop offset="0.9037" stop-color="#F6F6F8" stop-opacity="0.9037"/>
<stop offset="1" stop-color="white"/>
</linearGradient>
<linearGradient id="paint2_linear_27_1337" x1="524.434" y1="547.506" x2="182.455" y2="531.131" gradientUnits="userSpaceOnUse">
<stop stop-color="#E0E0E6" stop-opacity="0.96"/>
<stop offset="0.5751" stop-color="#282A57" stop-opacity="0"/>
<stop offset="0.7679" stop-color="#8788A1" stop-opacity="0.4537"/>
<stop offset="1" stop-color="white"/>
</linearGradient>
<linearGradient id="paint3_linear_27_1337" x1="506.043" y1="546.626" x2="200.845" y2="532.012" gradientUnits="userSpaceOnUse">
<stop stop-color="#E0E0E6" stop-opacity="0.96"/>
<stop offset="0.5751" stop-color="#282A57" stop-opacity="0"/>
<stop offset="0.7679" stop-color="#8788A1" stop-opacity="0.4537"/>
<stop offset="1" stop-color="white"/>
</linearGradient>
<linearGradient id="paint4_linear_27_1337" x1="226.331" y1="465.63" x2="226.331" y2="558.097" gradientUnits="userSpaceOnUse">
<stop stop-color="#6C20B1" stop-opacity="0"/>
<stop offset="1" stop-color="white"/>
</linearGradient>
<linearGradient id="paint5_linear_27_1337" x1="153.09" y1="498.141" x2="153.09" y2="550.925" gradientUnits="userSpaceOnUse">
<stop stop-color="#6C20B1" stop-opacity="0"/>
<stop offset="1" stop-color="white"/>
</linearGradient>
<linearGradient id="paint6_linear_27_1337" x1="168.813" y1="475.526" x2="240.125" y2="-54.4522" gradientUnits="userSpaceOnUse">
<stop stop-color="#1AE5FF"/>
<stop offset="0.2589" stop-color="#64E8F9"/>
<stop offset="0.7043" stop-color="#EAEEEE"/>
</linearGradient>
<linearGradient id="paint7_linear_27_1337" x1="30.193" y1="328.638" x2="58.7387" y2="328.638" gradientUnits="userSpaceOnUse">
<stop stop-color="#5155D4"/>
<stop offset="1" stop-color="#45F7FF"/>
</linearGradient>
<linearGradient id="paint8_linear_27_1337" x1="218.358" y1="445.895" x2="218.358" y2="-6.24522" gradientUnits="userSpaceOnUse">
<stop stop-color="#F38273"/>
<stop offset="1" stop-color="#FF2FCC"/>
</linearGradient>
<linearGradient id="paint9_linear_27_1337" x1="225.921" y1="349.541" x2="225.921" y2="93.6493" gradientUnits="userSpaceOnUse">
<stop stop-color="#6C20B1" stop-opacity="0"/>
<stop offset="1" stop-color="white"/>
</linearGradient>
<linearGradient id="paint10_linear_27_1337" x1="238.528" y1="354.944" x2="238.528" y2="99.0523" gradientUnits="userSpaceOnUse">
<stop stop-color="#6C20B1" stop-opacity="0"/>
<stop offset="1" stop-color="white"/>
</linearGradient>
<linearGradient id="paint11_linear_27_1337" x1="247.448" y1="302.714" x2="247.448" y2="194.279" gradientUnits="userSpaceOnUse">
<stop stop-color="#003DE6"/>
<stop offset="1" stop-color="#00B4F7"/>
</linearGradient>
<linearGradient id="paint12_linear_27_1337" x1="189.955" y1="373.688" x2="186.384" y2="373.688" gradientUnits="userSpaceOnUse">
<stop stop-color="#05CCFF"/>
<stop offset="0.2008" stop-color="#05C7FF"/>
<stop offset="0.4439" stop-color="#05B8FF"/>
<stop offset="0.7087" stop-color="#04A0FF"/>
<stop offset="0.9875" stop-color="#047EFF"/>
<stop offset="1" stop-color="#047CFF"/>
</linearGradient>
<linearGradient id="paint13_linear_27_1337" x1="233.574" y1="326.342" x2="201.156" y2="470.423" gradientUnits="userSpaceOnUse">
<stop stop-color="#05CCFF"/>
<stop offset="0.2008" stop-color="#05C7FF"/>
<stop offset="0.4439" stop-color="#05B8FF"/>
<stop offset="0.7087" stop-color="#04A0FF"/>
<stop offset="0.9875" stop-color="#047EFF"/>
<stop offset="1" stop-color="#047CFF"/>
</linearGradient>
<linearGradient id="paint14_linear_27_1337" x1="181.219" y1="378.732" x2="177.648" y2="378.732" gradientUnits="userSpaceOnUse">
<stop stop-color="#BDF7A3"/>
<stop offset="1" stop-color="#009EE0"/>
</linearGradient>
<linearGradient id="paint15_linear_27_1337" x1="198.684" y1="368.645" x2="195.113" y2="368.645" gradientUnits="userSpaceOnUse">
<stop stop-color="#FFE900"/>
<stop offset="1" stop-color="#FF13BD"/>
</linearGradient>
<linearGradient id="paint16_linear_27_1337" x1="229.168" y1="270.896" x2="229.168" y2="441.566" gradientUnits="userSpaceOnUse">
<stop stop-color="#6C20B1" stop-opacity="0"/>
<stop offset="1" stop-color="white"/>
</linearGradient>
<linearGradient id="paint17_linear_27_1337" x1="262.855" y1="349.139" x2="250.503" y2="349.139" gradientUnits="userSpaceOnUse">
<stop stop-color="#FFE900"/>
<stop offset="1" stop-color="#FF13BD"/>
</linearGradient>
<linearGradient id="paint18_linear_27_1337" x1="470.915" y1="434.855" x2="470.915" y2="568.745" gradientUnits="userSpaceOnUse">
<stop stop-color="#6C20B1" stop-opacity="0"/>
<stop offset="1" stop-color="white"/>
</linearGradient>
<linearGradient id="paint19_linear_27_1337" x1="511.56" y1="477.56" x2="427.472" y2="477.56" gradientUnits="userSpaceOnUse">
<stop stop-color="#F38273"/>
<stop offset="1" stop-color="#FF2FCC"/>
</linearGradient>
<linearGradient id="paint20_linear_27_1337" x1="469.528" y1="457.001" x2="469.528" y2="633.647" gradientUnits="userSpaceOnUse">
<stop stop-color="#F38273"/>
<stop offset="1" stop-color="#FF2FCC"/>
</linearGradient>
<linearGradient id="paint21_linear_27_1337" x1="407.12" y1="421.239" x2="480.111" y2="494.23" gradientUnits="userSpaceOnUse">
<stop stop-color="#6C20B1" stop-opacity="0"/>
<stop offset="0.0556024" stop-color="#7933B8" stop-opacity="0.0556024"/>
<stop offset="0.2483" stop-color="#A170CD" stop-opacity="0.2483"/>
<stop offset="0.4333" stop-color="#C3A3DF" stop-opacity="0.4333"/>
<stop offset="0.6058" stop-color="#DDCBED" stop-opacity="0.6058"/>
<stop offset="0.7629" stop-color="#F0E8F7" stop-opacity="0.7629"/>
<stop offset="0.8994" stop-color="#FBF9FD" stop-opacity="0.8994"/>
<stop offset="1" stop-color="white"/>
</linearGradient>
<linearGradient id="paint22_linear_27_1337" x1="468.729" y1="252.93" x2="468.729" y2="334.011" gradientUnits="userSpaceOnUse">
<stop stop-color="#6C20B1" stop-opacity="0"/>
<stop offset="1" stop-color="white"/>
</linearGradient>
<linearGradient id="paint23_linear_27_1337" x1="460.648" y1="315.965" x2="460.648" y2="402.946" gradientUnits="userSpaceOnUse">
<stop stop-color="#6C20B1" stop-opacity="0"/>
<stop offset="1" stop-color="white"/>
</linearGradient>
<linearGradient id="paint24_linear_27_1337" x1="474.258" y1="370.596" x2="474.258" y2="440.777" gradientUnits="userSpaceOnUse">
<stop stop-color="#F38273"/>
<stop offset="1" stop-color="#FF2FCC"/>
</linearGradient>
<linearGradient id="paint25_linear_27_1337" x1="469.528" y1="295.927" x2="469.528" y2="424.015" gradientUnits="userSpaceOnUse">
<stop stop-color="#282A57" stop-opacity="0"/>
<stop offset="0.0384245" stop-color="#333560" stop-opacity="0.0384245"/>
<stop offset="0.3035" stop-color="#7B7C98" stop-opacity="0.3035"/>
<stop offset="0.5416" stop-color="#B4B4C4" stop-opacity="0.5416"/>
<stop offset="0.7443" stop-color="#DDDDE4" stop-opacity="0.7443"/>
<stop offset="0.9037" stop-color="#F6F6F8" stop-opacity="0.9037"/>
<stop offset="1" stop-color="white"/>
</linearGradient>
<linearGradient id="paint26_linear_27_1337" x1="559.51" y1="476.453" x2="478.808" y2="472.589" gradientUnits="userSpaceOnUse">
<stop stop-color="#282A57" stop-opacity="0"/>
<stop offset="0.4537" stop-color="#8788A1" stop-opacity="0.4537"/>
<stop offset="1" stop-color="white"/>
</linearGradient>
<radialGradient id="paint27_radial_27_1337" cx="0" cy="0" r="1" gradientUnits="userSpaceOnUse" gradientTransform="translate(523.136 408.375) rotate(-176.17) scale(10.8633 10.8633)">
<stop stop-color="white"/>
<stop offset="0.0338438" stop-color="#EDEDED"/>
<stop offset="0.1436" stop-color="#B6B6B6"/>
<stop offset="0.2573" stop-color="#858585"/>
<stop offset="0.3723" stop-color="#5C5C5C"/>
<stop offset="0.4891" stop-color="#3B3B3B"/>
<stop offset="0.6083" stop-color="#212121"/>
<stop offset="0.7307" stop-color="#0F0F0F"/>
<stop offset="0.8584" stop-color="#040404"/>
<stop offset="1"/>
</radialGradient>
<radialGradient id="paint28_radial_27_1337" cx="0" cy="0" r="1" gradientUnits="userSpaceOnUse" gradientTransform="translate(410.831 462.172) rotate(-176.17) scale(6.05583 6.05585)">
<stop stop-color="white"/>
<stop offset="0.0338438" stop-color="#EDEDED"/>
<stop offset="0.1436" stop-color="#B6B6B6"/>
<stop offset="0.2573" stop-color="#858585"/>
<stop offset="0.3723" stop-color="#5C5C5C"/>
<stop offset="0.4891" stop-color="#3B3B3B"/>
<stop offset="0.6083" stop-color="#212121"/>
<stop offset="0.7307" stop-color="#0F0F0F"/>
<stop offset="0.8584" stop-color="#040404"/>
<stop offset="1"/>
</radialGradient>
<radialGradient id="paint29_radial_27_1337" cx="0" cy="0" r="1" gradientUnits="userSpaceOnUse" gradientTransform="translate(416.887 320.062) rotate(-176.17) scale(6.05583 6.05583)">
<stop stop-color="white"/>
<stop offset="0.0338438" stop-color="#EDEDED"/>
<stop offset="0.1436" stop-color="#B6B6B6"/>
<stop offset="0.2573" stop-color="#858585"/>
<stop offset="0.3723" stop-color="#5C5C5C"/>
<stop offset="0.4891" stop-color="#3B3B3B"/>
<stop offset="0.6083" stop-color="#212121"/>
<stop offset="0.7307" stop-color="#0F0F0F"/>
<stop offset="0.8584" stop-color="#040404"/>
<stop offset="1"/>
</radialGradient>
<linearGradient id="paint30_linear_27_1337" x1="250.528" y1="-18.166" x2="250.528" y2="198.228" gradientUnits="userSpaceOnUse">
<stop stop-color="#FFE900"/>
<stop offset="1" stop-color="#FF2FCC"/>
</linearGradient>
<linearGradient id="paint31_linear_27_1337" x1="221.204" y1="-18.1664" x2="221.204" y2="198.229" gradientUnits="userSpaceOnUse">
<stop stop-color="#FFE900"/>
<stop offset="1" stop-color="#FF2FCC"/>
</linearGradient>
<linearGradient id="paint32_linear_27_1337" x1="191.874" y1="-18.166" x2="191.874" y2="198.228" gradientUnits="userSpaceOnUse">
<stop stop-color="#FFE900"/>
<stop offset="1" stop-color="#FF2FCC"/>
</linearGradient>
<linearGradient id="paint33_linear_27_1337" x1="162.545" y1="-18.1661" x2="162.545" y2="198.228" gradientUnits="userSpaceOnUse">
<stop stop-color="#FFE900"/>
<stop offset="1" stop-color="#FF2FCC"/>
</linearGradient>
<linearGradient id="paint34_linear_27_1337" x1="133.221" y1="-18.1665" x2="133.221" y2="198.229" gradientUnits="userSpaceOnUse">
<stop stop-color="#FFE900"/>
<stop offset="1" stop-color="#FF2FCC"/>
</linearGradient>
<linearGradient id="paint35_linear_27_1337" x1="361.377" y1="482.056" x2="361.377" y2="614.997" gradientUnits="userSpaceOnUse">
<stop stop-color="#6C20B1" stop-opacity="0"/>
<stop offset="1" stop-color="white"/>
</linearGradient>
<linearGradient id="paint36_linear_27_1337" x1="349.971" y1="460.444" x2="349.971" y2="593.384" gradientUnits="userSpaceOnUse">
<stop stop-color="#6C20B1" stop-opacity="0"/>
<stop offset="1" stop-color="white"/>
</linearGradient>
<linearGradient id="paint37_linear_27_1337" x1="301.357" y1="456.701" x2="301.357" y2="598.367" gradientUnits="userSpaceOnUse">
<stop stop-color="#F38273"/>
<stop offset="1" stop-color="#FF2FCC"/>
</linearGradient>
<linearGradient id="paint38_linear_27_1337" x1="369.869" y1="456.701" x2="369.869" y2="598.367" gradientUnits="userSpaceOnUse">
<stop stop-color="#F38273"/>
<stop offset="1" stop-color="#FF2FCC"/>
</linearGradient>
<linearGradient id="paint39_linear_27_1337" x1="366.071" y1="263.51" x2="321.739" y2="263.51" gradientUnits="userSpaceOnUse">
<stop stop-color="#A43F41"/>
<stop offset="1" stop-color="#642F41"/>
</linearGradient>
<linearGradient id="paint40_linear_27_1337" x1="299.928" y1="166.618" x2="328.725" y2="239.718" gradientUnits="userSpaceOnUse">
<stop stop-color="#86F7C1"/>
<stop offset="1" stop-color="#009EE0"/>
</linearGradient>
<clipPath id="clip0_27_1337">
<rect width="534" height="627.121" fill="white" transform="matrix(-1 0 0 1 534 0)"/>
</clipPath>
</defs>
</svg>
