<svg width="1922" height="811" viewBox="0 0 1922 811" fill="none" xmlns="http://www.w3.org/2000/svg">
<path fill-rule="evenodd" clip-rule="evenodd" d="M940.114 6.71326C940.404 5.89716 940.695 5.08105 940.99 4.26031C941.747 2.85919 942.503 1.4314 943.259 0H943.332C943.098 0.561951 942.867 1.12366 942.636 1.68542C942.312 2.47186 941.989 3.2583 941.657 4.04523C941.248 4.89819 940.848 5.75061 940.448 6.60309C940.048 7.45557 939.648 8.30798 939.24 9.16095C939.534 8.34192 939.824 7.52759 940.114 6.71326ZM931.101 0H929.822C929.66 0.841064 929.499 1.68195 929.338 2.52264L931.101 0ZM929.08 0C928.828 1.31824 928.577 2.63605 928.327 3.95331C927.108 5.69122 925.894 7.43341 924.68 9.1756C923.468 10.9153 922.256 12.6551 921.039 14.3906C921.671 9.60168 922.321 4.80475 922.99 0H929.08ZM922.269 0C921.539 5.23969 920.832 10.4697 920.145 15.6899C917.922 18.8514 915.728 22.0114 913.524 25.1849L912.792 26.2379C913.433 17.5231 914.137 8.77679 914.916 0H922.269ZM914.198 0C913.387 9.16187 912.659 18.2917 911.998 27.3888C910.764 29.1628 909.535 30.9409 908.305 32.7191C907.077 34.496 905.848 36.2729 904.615 38.0457C904.8 25.4387 905.122 12.7557 905.627 0H914.198ZM904.902 0C904.382 13.1104 904.054 26.1461 903.869 39.1046L903.045 40.2896C900.849 43.4452 898.643 46.6155 896.453 49.7991C895.736 33.3391 895.263 16.7379 895.141 0H904.902ZM894.434 0C894.56 17.0869 895.051 34.0334 895.795 50.8353C893.313 54.3979 890.833 57.9962 888.352 61.5944L888.347 61.603C886.288 41.3076 884.617 20.77 883.55 0H894.434ZM882.842 0C883.926 21.0809 885.631 41.922 887.735 62.5117C886.494 64.3122 885.249 66.1174 884.004 67.9226C882.759 69.7278 881.513 71.5331 880.272 73.3336C876.438 49.2611 873.174 24.8113 870.859 0H882.842ZM870.132 0C872.478 25.0953 875.795 49.8228 879.693 74.1692C878.452 75.9697 877.207 77.7749 875.961 79.5801C874.716 81.3854 873.471 83.1906 872.23 84.9911C866.193 57.2009 860.944 28.864 857.102 0H870.132ZM856.348 0C860.231 29.1431 865.549 57.7522 871.667 85.8079C870.512 87.483 869.358 89.1659 868.202 90.8511C866.873 92.7887 865.542 94.7295 864.206 96.6655C855.554 65.1935 847.96 32.9632 842.364 0H856.348ZM841.603 0C847.244 33.2302 854.914 65.7152 863.658 97.4278C862.497 99.1279 861.335 100.82 860.175 102.51C858.841 104.454 857.509 106.394 856.182 108.34C844.509 73.2346 834.206 37.1111 826.642 0H841.603ZM825.9 0C833.513 37.3629 843.9 73.7279 855.668 109.065C854.419 110.892 853.17 112.711 851.922 114.53C850.672 116.349 849.423 118.168 848.175 119.995C833.092 81.3063 819.734 41.2969 810.016 0H825.9ZM809.256 0C819.036 41.5482 832.504 81.7928 847.713 120.699C846.473 122.518 845.229 124.332 843.984 126.146C842.739 127.96 841.494 129.774 840.254 131.593C821.371 89.395 804.617 45.5181 792.589 0H809.256ZM791.81 0C803.905 45.7725 820.773 89.8895 839.776 132.315L832.3 143.227C809.257 97.5555 788.797 49.8011 774.343 0H791.81ZM773.552 0C788.071 50.0472 808.65 98.0324 831.819 143.915C825.319 153.398 818.835 162.862 812.353 172.362C663.353 390.36 513.178 610.047 329.678 805.052C311.148 806.789 292.162 808.48 272.711 810.124H0V0H773.552ZM944.286 0C943.615 1.42004 942.945 2.84039 942.276 4.26135C939.084 12.0066 935.909 19.7332 932.733 27.4597L932.707 27.5233C930.475 33.8347 928.278 40.1324 926.078 46.4376C925.58 47.8659 925.081 49.2946 924.582 50.724C923.09 55.8632 921.613 60.9858 920.137 66.1084C919.397 68.6747 918.657 71.2409 917.915 73.8092C917.294 76.5384 916.674 79.2652 916.055 81.9897C914.939 86.9029 913.825 91.8087 912.703 96.7076C912.298 99.1074 911.902 101.507 911.506 103.906C911.111 106.301 910.715 108.697 910.311 111.092L908.913 119.492L908.522 123.104C908.239 125.774 907.96 128.441 907.68 131.104C907.297 134.767 906.913 138.424 906.524 142.075C906.384 145.145 906.247 148.211 906.111 151.271C905.914 155.674 905.719 160.066 905.515 164.44C905.636 171.864 905.755 179.252 905.855 186.624C906.052 189.197 906.25 191.768 906.449 194.334C906.82 199.13 907.19 203.911 907.543 208.662C908.549 215.93 909.533 223.146 910.499 230.345C911.948 237.571 913.36 244.764 914.733 251.887C916.605 259.018 918.422 266.099 920.201 273.147C922.481 280.202 924.704 287.207 926.852 294.145C929.52 301.108 932.148 308.002 934.667 314.866C937.722 321.736 940.721 328.556 943.628 335.327C947.072 342.104 950.421 348.798 953.678 355.443C990.612 420.277 1018.57 479.066 1021.24 531.684C1026.9 642.027 921.451 724.999 555.479 779.133C548.736 780.27 541.886 781.413 534.944 782.508C528.676 783.659 522.343 784.783 515.902 785.925L514.727 786.133C508.136 787.441 501.491 788.733 494.72 790.015C493.829 790.205 492.938 790.394 492.047 790.584C486.487 791.769 480.901 792.959 475.206 794.102C468.979 795.533 462.752 796.963 456.4 798.382C450.99 799.732 445.562 801.066 440.062 802.403C435.491 803.633 430.823 804.845 426.128 806.064C425.092 806.333 424.055 806.603 423.017 806.873C419.277 807.956 415.496 809.041 411.688 810.124H1921.78V0H944.286ZM403.311 810.124C403.548 810.029 403.785 809.933 404.023 809.837C404.652 809.582 405.284 809.326 405.936 809.076C404.185 809.425 402.433 809.773 400.652 810.124H403.311ZM397.012 810.124C398.019 809.928 399.02 809.73 400.013 809.525C400.468 809.33 400.921 809.136 401.373 808.944C402.341 808.531 403.302 808.121 404.254 807.703C402.521 808.007 400.817 808.319 399.093 808.634C398.458 808.75 397.821 808.867 397.179 808.984C396.386 809.37 395.586 809.75 394.787 810.124H397.012ZM393.069 810.124C393.551 809.894 394.031 809.664 394.507 809.434C393.473 809.611 392.431 809.792 391.384 809.974C391.097 810.024 390.81 810.074 390.522 810.124H393.069ZM386.299 810.124C386.474 810.094 386.649 810.063 386.823 810.033C388.301 809.291 389.795 808.531 391.254 807.772C389.363 808.071 387.438 808.355 385.509 808.64C384.619 808.772 383.728 808.903 382.839 809.036C382.208 809.396 381.58 809.76 380.953 810.124H386.299ZM379.544 810.124C380.005 809.859 380.465 809.591 380.925 809.32C379.473 809.542 378.016 809.76 376.558 809.979C376.235 810.027 375.912 810.075 375.588 810.124H379.544ZM370.782 810.124L371.851 809.96C373.285 809.077 374.684 808.197 376.064 807.3C372.979 807.719 369.875 808.121 366.735 808.525C365.974 809.053 365.207 809.587 364.437 810.124H370.782ZM363.236 810.124C363.893 809.665 364.545 809.201 365.193 808.734C362.421 809.089 359.663 809.456 356.884 809.826L355.67 809.988C355.612 810.033 355.554 810.079 355.497 810.124H363.236ZM348.882 810.124C351.072 809.85 353.252 809.577 355.4 809.306C355.587 809.159 355.775 809.011 355.963 808.862C357.047 808.008 358.144 807.143 359.254 806.291C355.899 806.671 352.544 807.051 349.153 807.433C348.109 808.338 347.065 809.242 346.019 810.124H348.882ZM344.879 810.124C345.889 809.273 346.888 808.429 347.875 807.575C344.484 807.957 341.075 808.322 337.63 808.689C337.125 809.17 336.623 809.647 336.122 810.124H344.879ZM335.092 810.124C335.554 809.683 336.016 809.243 336.475 808.806C334.063 809.087 331.666 809.35 329.257 809.614C328.193 809.73 327.126 809.847 326.054 809.966C326.003 810.019 325.953 810.071 325.903 810.124H335.092ZM324.927 810.124C324.942 810.109 324.956 810.094 324.97 810.079C324.83 810.094 324.69 810.109 324.549 810.124H324.927ZM317.995 810.124C320.571 809.853 323.138 809.58 325.696 809.307C326.245 808.732 326.79 808.153 327.334 807.573C327.879 806.994 328.423 806.416 328.971 805.841C313.319 807.3 297.345 808.728 281.041 810.124H317.995ZM941.788 0C941.314 1.32129 940.84 2.64282 940.367 3.97296C938.863 6.78217 937.378 9.60803 935.893 12.434L935.883 12.4526C936.682 9.7475 937.497 7.02362 938.312 4.29974C939.143 2.8678 939.983 1.4353 940.83 0H941.788ZM939.584 0H939.994C939.715 0.47644 939.435 0.95343 939.156 1.43134C939.298 0.954285 939.44 0.477234 939.584 0ZM938.841 0C938.437 1.33496 938.034 2.66797 937.635 3.99744C936.061 6.72235 934.46 9.44861 932.867 12.1635L932.05 13.5556C932.556 11.4424 933.071 9.33704 933.588 7.2229C933.828 6.24066 934.069 5.25653 934.31 4.2688C935.219 2.84668 936.135 1.42419 937.054 0H938.841ZM934.624 0C934.301 1.33282 933.982 2.66663 933.67 4.00012C932.583 5.68506 931.501 7.37421 930.419 9.06335C929.337 10.7524 928.255 12.4416 927.169 14.1265C927.775 10.8425 928.381 7.55841 929.006 4.29126C930.003 2.85797 930.997 1.4281 931.993 0H934.624ZM935.342 0H936.198C935.737 0.716492 935.278 1.43341 934.819 2.15112C934.992 1.43408 935.166 0.71698 935.342 0ZM930.66 30.0914C930.904 29.2608 931.149 28.4302 931.389 27.5955L933.773 22.5172C933.487 23.3278 933.205 24.1335 932.923 24.9393C932.641 25.7452 932.359 26.551 932.073 27.3615C931.719 28.2293 931.36 29.1019 931.002 29.9744C930.643 30.847 930.284 31.7195 929.93 32.5873C930.17 31.7525 930.415 30.9219 930.66 30.0914ZM932.731 23.0744L934.809 15.9945C936.086 13.549 937.365 11.1391 938.644 8.72919L936.184 15.6692C935.265 17.6768 934.322 19.6855 933.383 21.6846C933.166 22.1484 932.948 22.6118 932.731 23.0744ZM922.664 53.3745C922.867 52.5149 923.07 51.6553 923.264 50.7961L925.39 45.5891C925.15 46.4239 924.91 47.2498 924.669 48.0757C924.429 48.9016 924.188 49.7275 923.948 50.5623L922.064 55.9525C922.258 55.0935 922.461 54.234 922.664 53.3745ZM924.275 46.4183C924.842 44.0474 925.406 41.6408 925.955 39.253C926.635 37.8016 927.309 36.3443 927.98 34.892C928.445 33.8862 928.909 32.8829 929.374 31.8855C928.7 34.2622 928.007 36.6222 927.315 38.9821C926.811 40.2242 926.303 41.4622 925.795 42.7002C925.287 43.9381 924.778 45.1761 924.275 46.4183ZM927.345 33.2914C927.784 31.41 928.226 29.5193 928.677 27.6368C930.148 24.8234 931.636 21.9912 933.126 19.1946C932.718 20.5574 932.319 21.9197 931.92 23.282C931.522 24.6427 931.123 26.0033 930.716 27.3644C929.387 30.17 928.06 33.0112 926.75 35.8337C926.948 34.9892 927.146 34.1412 927.345 33.2914ZM930.422 20.4023C930.775 18.9209 931.127 17.4395 931.485 15.9622C933.248 12.9363 935.012 9.9104 936.811 6.88257C935.917 9.80725 935.042 12.7488 934.167 15.6903C932.567 18.7609 930.965 21.7957 929.362 24.8306C929.719 23.3573 930.07 21.8798 930.422 20.4023ZM916.166 76.4878C916.315 75.6097 916.465 74.7316 916.614 73.8625L918.45 68.5643L917.283 73.683L915.722 79.0914C915.87 78.2294 916.018 77.3586 916.166 76.4878ZM917.31 69.609C917.733 67.2103 918.153 64.776 918.557 62.3604L921.546 54.9805L919.902 62.1438L917.31 69.609ZM920.551 50.8429L920.551 50.8375L924.465 42.389C924.156 43.7543 923.838 45.1201 923.52 46.486C923.201 47.8521 922.883 49.2182 922.574 50.5839L919.127 59.0783C919.603 56.3569 920.077 53.5999 920.551 50.8429ZM921.028 48.1143L922.578 39.2414C922.844 38.7358 923.11 38.2298 923.376 37.7233C924.699 35.208 926.028 32.682 927.332 30.1574C926.993 31.6328 926.645 33.1087 926.296 34.5847C925.949 36.0583 925.601 37.532 925.262 39.0052C924.56 40.5262 923.852 42.0429 923.145 43.5597C922.438 45.0765 921.73 46.5933 921.028 48.1143ZM924.192 30.2028C924.347 29.3453 924.502 28.4863 924.657 27.6246L924.664 27.6127C926.524 24.4424 928.384 21.2723 930.226 18.0853L928.001 27.3701C927.168 28.9607 926.331 30.556 925.494 32.1514C924.657 33.7467 923.82 35.342 922.987 36.9327C923.382 34.6872 923.786 32.4505 924.192 30.2028ZM925.044 25.5671C925.621 22.3919 926.212 19.1623 926.805 15.9683L927.57 14.7716C929.418 11.8798 931.258 9.00061 933.125 6.11987C932.821 7.38098 932.515 8.63947 932.209 9.8963C931.737 11.8323 931.267 13.7642 930.809 15.6955C929.846 17.337 928.887 18.9826 927.929 20.6282C926.969 22.2759 926.009 23.9236 925.044 25.5671ZM910.821 102.133L911.387 96.8153L912.949 91.407L912.077 96.6883L911.283 100.143L910.821 102.133ZM912.221 89.0445C912.355 87.827 912.489 86.6095 912.619 85.3878L913.28 83.4403L915.177 77.9601L913.967 85.2068L912.392 90.7052L911.823 92.7011C911.952 91.4794 912.087 90.262 912.221 89.0445ZM913.866 73.9067V73.9059L917.298 65.4659C917.069 66.8389 916.835 68.2167 916.602 69.5945C916.369 70.9661 916.137 72.3377 915.909 73.7047L912.963 82.2075C913.24 79.4418 913.553 76.6743 913.866 73.9067ZM914.667 66.8512C914.836 65.3683 915.005 63.8855 915.165 62.4031L919.402 53.3296C918.885 56.2873 918.368 59.2449 917.868 62.1837L914.17 71.2993C914.33 69.8169 914.499 68.334 914.667 66.8512ZM915.958 55.5098C916.136 53.9595 916.315 52.4091 916.498 50.863L916.572 50.7226C918.213 47.5881 919.854 44.4538 921.478 41.3378C921.207 42.8853 920.939 44.4282 920.671 45.971C920.403 47.5209 920.134 49.0707 919.861 50.6252L915.417 60.1567C915.601 58.6105 915.779 57.0602 915.958 55.5098ZM916.986 46.7013C917.28 44.2291 917.575 41.7426 917.882 39.2663C918.728 37.8202 919.574 36.3671 920.421 34.9116C921.487 33.0797 922.555 31.244 923.63 29.4134C923.41 30.6413 923.188 31.8667 922.965 33.0905C922.607 35.0669 922.249 37.039 921.904 39.0104C920.173 42.3024 918.459 45.5757 916.728 48.8677C916.814 48.1472 916.9 47.4248 916.986 46.7013ZM918.874 31.2836C919.029 30.0676 919.183 28.8501 919.334 27.6302C921.491 24.2792 923.629 20.9113 925.766 17.5434C925.472 19.176 925.173 20.8134 924.874 22.4507C924.575 24.088 924.276 25.7253 923.982 27.358C923.002 29.037 922.022 30.725 921.043 32.413C920.064 34.1009 919.085 35.7889 918.105 37.4679C918.352 35.4085 918.613 33.3483 918.874 31.2836ZM907.356 124.972L907.595 119.564L908.833 114.102L908.266 119.421L907.356 124.972ZM907.935 111.892C907.988 110.67 908.042 109.448 908.1 108.23L910.246 100.772C910.151 101.673 910.052 102.571 909.954 103.468C909.787 105.004 909.62 106.536 909.467 108.066L907.769 115.554C907.827 114.336 907.881 113.114 907.935 111.892ZM908.439 100.979C908.505 99.6023 908.572 98.2261 908.639 96.8586L911.551 88.3935C911.356 90.3437 911.142 92.2949 910.93 94.2397C910.841 95.0532 910.752 95.8655 910.665 96.6762L908.236 105.168C908.304 103.778 908.372 102.378 908.439 100.979ZM908.979 89.8735C909.054 88.3885 909.129 86.9034 909.209 85.4137L911.962 78.6006L912.891 76.317C912.554 79.3004 912.232 82.2296 911.912 85.1943L908.75 94.3162C908.829 92.8322 908.904 91.3528 908.979 89.8735ZM909.322 83.2462C909.456 80.1488 909.626 77.0494 909.796 73.9501L914.206 64.4561C914.128 65.1543 914.05 65.8507 913.972 66.5459C913.702 68.9465 913.434 71.3328 913.177 73.7292L911.305 78.3508L909.322 83.2462ZM909.906 72.0507C910.07 68.8444 910.253 65.655 910.435 62.4656L915.578 52.6459C915.397 54.2456 915.212 55.8411 915.027 57.4366C914.842 59.0318 914.657 60.6271 914.477 62.2265L909.906 72.0507ZM911.121 50.9185L911.123 50.8893C913.083 47.5312 915.026 44.1918 916.966 40.8168L915.789 50.6338C914.908 52.3164 914.031 53.9943 913.153 55.6722C912.276 57.3502 911.399 59.0281 910.518 60.7107C910.732 57.4578 910.926 54.1882 911.121 50.9185ZM911.234 49.3292C911.445 45.9954 911.655 42.6615 911.883 39.3089C914.071 35.8847 916.259 32.4606 918.43 29.0551C918.006 32.4007 917.599 35.7274 917.191 39.0541C915.217 42.4666 913.226 45.8979 911.234 49.3292ZM905.272 147.592L905.189 142.166C905.516 140.33 905.808 138.495 906.1 136.66L906.102 136.651L905.862 142.058L905.272 147.592ZM905.153 138.239L905.019 130.905L905.024 130.885C905.583 128.414 906.143 125.942 906.736 123.434L906.404 130.758L905.153 138.239ZM904.913 125.087C904.881 123.27 904.848 121.449 904.83 119.627C905.304 117.947 905.79 116.266 906.277 114.582C906.606 113.447 906.935 112.31 907.261 111.17C907.193 112.549 907.131 113.932 907.068 115.316C907.005 116.699 906.943 118.082 906.875 119.461C906.244 122.282 905.612 125.103 904.962 127.907C904.947 126.969 904.93 126.029 904.913 125.087ZM904.721 112.738C904.702 111.256 904.684 109.775 904.656 108.294L907.787 99.2451C907.664 102.217 907.522 105.172 907.38 108.127C906.53 111.149 905.661 114.154 904.792 117.159L904.786 117.182C904.758 115.701 904.74 114.219 904.721 112.738ZM904.631 106.205C904.587 103.118 904.56 100.011 904.533 96.9048L908.373 87.4421C908.264 89.438 908.169 91.4331 908.075 93.4234C908.023 94.5238 907.971 95.6227 907.917 96.7195L904.631 106.205ZM904.522 95.0656C904.489 91.8523 904.458 88.6746 904.443 85.4781L908.152 77.5231L908.999 75.7084C908.881 77.7639 908.778 79.8185 908.676 81.8684C908.619 82.9992 908.563 84.1286 908.504 85.2558L904.522 95.0656ZM904.424 78.9239C904.419 77.2943 904.415 75.6646 904.406 74.0308L909.627 64.0103L909.091 73.7922L907.493 77.2376L904.442 83.817C904.433 82.1832 904.428 80.5536 904.424 78.9239ZM904.4 65.8405C904.401 64.7298 904.401 63.619 904.4 62.5103C906.375 59.0977 908.349 55.6852 910.341 52.2539C910.234 54.1229 910.121 55.9867 910.009 57.8448C909.919 59.3179 909.831 60.7874 909.745 62.2534L904.41 72.4766C904.397 70.2757 904.398 68.0581 904.4 65.8405ZM904.412 61.0984C904.424 57.722 904.436 54.3454 904.464 50.9501C906.667 47.4715 908.889 44.0098 911.111 40.548C910.885 43.9362 910.66 47.3244 910.452 50.6938C909.439 52.4283 908.436 54.1622 907.432 55.8961C906.428 57.6301 905.425 59.364 904.412 61.0984ZM903.865 160.725L903.285 153.398L903.286 153.397C903.704 150.927 904.122 148.458 904.522 145.972L904.581 149.648L904.658 153.341C904.417 155.801 904.141 158.263 903.865 160.725ZM902.723 146.267C902.619 144.919 902.514 143.568 902.405 142.212L902.408 142.199C903.057 139.399 903.707 136.599 904.32 133.801L904.33 134.378C904.372 136.965 904.413 139.525 904.471 142.098L903.054 150.482C902.941 149.082 902.832 147.677 902.723 146.267ZM902.239 139.827L901.54 130.97C902.408 128.01 903.274 125.014 904.14 122.019L904.155 121.968C904.21 124.93 904.265 127.892 904.301 130.837C903.954 132.339 903.612 133.835 903.27 135.332C902.928 136.829 902.585 138.326 902.239 139.827ZM901.042 124.326C900.922 122.788 900.802 121.249 900.691 119.71L903.978 110.26L904.11 119.523C903.211 122.68 902.31 125.802 901.393 128.942C901.282 127.403 901.162 125.865 901.042 124.326ZM900.558 117.931L899.874 108.377C901.196 105.125 902.519 101.873 903.824 98.6404C903.84 100.229 903.86 101.822 903.88 103.415C903.901 105.009 903.921 106.602 903.936 108.19C902.828 111.43 901.702 114.689 900.558 117.931ZM899.443 101.96C899.33 100.307 899.217 98.6497 899.108 96.9875L903.758 86.9982C903.776 88.6226 903.789 90.2518 903.802 91.881C903.816 93.5101 903.829 95.1393 903.846 96.7637C902.476 100.108 901.122 103.432 899.767 106.757C899.663 105.162 899.553 103.563 899.443 101.96ZM898.99 95.4958C898.774 92.1965 898.557 88.8971 898.358 85.5791L900.315 81.846L903.678 75.4103C903.681 78.7205 903.701 82.012 903.721 85.3034L903.721 85.339L898.992 95.5291L898.99 95.4958ZM898.263 84.1732C898.063 80.844 897.861 77.4792 897.659 74.1144L903.664 63.7473C903.667 65.4232 903.665 67.1036 903.664 68.7841C903.662 70.4707 903.661 72.1573 903.663 73.8392L899.652 81.4894L898.263 84.1732ZM897.605 72.8134C897.418 69.3942 897.231 65.975 897.063 62.5726C899.282 59.0752 901.502 55.5778 903.741 52.0972C903.696 55.5113 903.686 58.9234 903.676 62.3355C902.58 64.2406 901.473 66.1461 900.364 68.0547C899.444 69.6384 898.523 71.2242 897.605 72.8134ZM904.623 170.008L904.181 164.531C904.385 162.716 904.587 160.865 904.79 159.014L904.874 164.475L904.623 170.008ZM902.549 172.89L901.382 164.631C901.854 161.836 902.328 159.077 902.819 156.3L903.413 163.876L903.466 164.534C903.337 165.704 903.21 166.87 903.083 168.033C902.907 169.658 902.731 171.277 902.549 172.89ZM901.041 162.327L899.808 153.499C900.023 152.566 900.239 151.635 900.454 150.707C900.931 148.649 901.406 146.601 901.872 144.545C901.984 145.971 902.097 147.388 902.209 148.805C902.329 150.322 902.449 151.84 902.569 153.366C902.179 155.733 901.776 158.068 901.371 160.413C901.261 161.05 901.151 161.688 901.041 162.327ZM899.539 151.532C899.104 148.465 898.668 145.399 898.249 142.314C899.15 139.193 900.067 136.052 900.987 132.948C901.106 134.477 901.226 136.016 901.346 137.554C901.466 139.092 901.586 140.631 901.706 142.161C901.344 143.716 900.983 145.281 900.623 146.846C900.262 148.411 899.901 149.976 899.539 151.532ZM898.011 140.577C897.588 137.42 897.165 134.264 896.724 131.091C897.851 127.868 898.978 124.645 900.104 121.386C900.332 124.57 900.577 127.737 900.821 130.902C900.356 132.518 899.886 134.129 899.416 135.74C898.946 137.351 898.476 138.961 898.011 140.577ZM895.98 125.72C895.713 123.762 895.445 121.801 895.196 119.832C895.648 118.724 896.101 117.617 896.555 116.51C897.462 114.298 898.368 112.085 899.258 109.858C899.49 113.114 899.722 116.37 899.971 119.607C899.282 121.549 898.605 123.491 897.929 125.43C897.452 126.799 896.975 128.167 896.495 129.532C896.327 128.261 896.154 126.991 895.98 125.72ZM895.028 118.395C894.597 115.096 894.167 111.797 893.753 108.48C894.538 106.789 895.328 105.093 896.117 103.397C896.902 101.711 897.687 100.026 898.467 98.3443C898.583 99.9829 898.695 101.617 898.806 103.248C898.921 104.928 899.035 106.603 899.154 108.274C898.469 109.963 897.78 111.648 897.091 113.333C896.402 115.019 895.713 116.705 895.028 118.395ZM892.739 100.466C892.602 99.3463 892.465 98.2265 892.327 97.1087L897.729 86.8102C897.931 90.1751 898.15 93.5211 898.369 96.8672C897.57 98.5892 896.771 100.302 895.972 102.016C895.173 103.73 894.373 105.445 893.574 107.168C893.286 104.945 893.012 102.706 892.739 100.466ZM892.204 95.8471C891.786 92.4584 891.387 89.0865 890.986 85.679L897.042 75.2556C897.228 78.6392 897.432 82.0396 897.653 85.4212L892.204 95.8471ZM890.849 84.4719C890.448 81.0644 890.064 77.6382 889.68 74.2119C891.898 70.6788 894.151 67.1438 896.405 63.6088V63.6093C896.575 67.0471 896.746 70.485 896.952 73.9209L890.849 84.4719ZM905.268 192.229L904.503 186.733C904.525 186.33 904.547 185.926 904.57 185.52C904.649 184.108 904.728 182.685 904.775 181.253C904.929 183.084 905.064 184.899 905.199 186.713C905.204 187.633 905.219 188.552 905.234 189.471C905.248 190.39 905.263 191.309 905.268 192.229ZM903.98 183.047L903.334 178.438L902.935 175.709C903.143 173.984 903.333 172.259 903.524 170.528C903.604 169.806 903.684 169.083 903.765 168.358L904.343 175.65C904.209 178.104 904.095 180.576 903.98 183.047ZM900.324 180.21C900.02 178.744 899.717 177.278 899.422 175.812C899.565 174.991 899.71 174.168 899.855 173.345C900.232 171.202 900.611 169.052 900.97 166.904L902.221 175.713C901.901 178.677 901.564 181.661 901.225 184.609C900.931 183.142 900.627 181.676 900.324 180.21ZM898.104 169.337C897.792 167.811 897.481 166.285 897.173 164.754L899.341 155.418C899.559 156.951 899.773 158.48 899.986 160.009C900.199 161.538 900.412 163.067 900.63 164.6C900.104 167.719 899.576 170.802 899.032 173.904C898.725 172.379 898.415 170.858 898.104 169.337ZM896.832 163.091C896.195 159.947 895.559 156.803 894.939 153.641C895.415 152.032 895.885 150.419 896.356 148.806C896.825 147.197 897.295 145.588 897.769 143.984C898.21 147.157 898.652 150.33 899.092 153.467C898.796 154.732 898.498 155.994 898.2 157.255C897.739 159.204 897.279 161.149 896.832 163.093L896.832 163.091ZM894.661 152.138C894.001 148.905 893.361 145.69 892.737 142.455C892.95 141.849 893.163 141.244 893.375 140.639C894.318 137.953 895.258 135.275 896.234 132.583C896.66 135.81 897.106 139.054 897.549 142.263C897.314 143.073 897.079 143.881 896.844 144.689C896.122 147.177 895.401 149.657 894.661 152.138ZM891.49 136.156C891.173 134.516 890.855 132.877 890.533 131.234C891.921 127.871 893.292 124.527 894.644 121.167C894.868 122.807 895.087 124.451 895.307 126.096C895.526 127.741 895.746 129.385 895.97 131.025L892.448 141.078C892.125 139.434 891.808 137.795 891.49 136.156ZM889.482 125.655C889.12 123.766 888.756 121.872 888.398 119.972C889.189 118.259 889.988 116.545 890.787 114.831C891.587 113.118 892.386 111.404 893.176 109.69C893.6 112.975 894.021 116.225 894.443 119.475L894.476 119.729C893.783 121.428 893.086 123.132 892.389 124.836C891.692 126.539 890.995 128.243 890.302 129.942C890.031 128.516 889.757 127.087 889.482 125.655ZM888.171 118.752C887.539 115.375 886.927 112.015 886.312 108.619L891.744 98.2122L891.748 98.2483C892.165 101.625 892.581 105.002 893.014 108.36L888.171 118.752ZM886.107 107.487C885.493 104.092 884.876 100.66 884.279 97.2455L885.894 94.46L890.364 86.7134C890.574 88.4255 890.779 90.1335 890.984 91.8415C891.19 93.5495 891.395 95.2574 891.605 96.9696L886.107 107.487ZM884.092 96.1305C883.476 92.6991 882.895 89.2656 882.312 85.7966L889.054 75.175C889.438 78.6239 889.84 82.0542 890.241 85.4844L890.246 85.5231L885.267 94.1013L884.092 96.1305ZM907.257 214.197L906.154 208.738C906.161 206.985 906.134 205.2 906.107 203.446L906.103 203.239C906.225 204.161 906.356 205.083 906.487 206.005C906.618 206.926 906.749 207.848 906.871 208.77C906.938 209.677 907.001 210.58 907.064 211.483C907.127 212.386 907.189 213.29 907.257 214.197ZM905.436 205.08L903.949 197.82L903.982 197.137C904.088 194.923 904.195 192.682 904.331 190.44L905.376 197.778C905.385 200.224 905.41 202.652 905.436 205.08ZM903.351 195.049L903.031 193.441L901.669 186.835L902.607 178.531L903.772 186.755C903.705 188.135 903.633 189.518 903.561 190.902C903.49 192.286 903.418 193.669 903.351 195.049ZM902.717 206.64L900.383 197.944C900.722 194.996 901.061 192.048 901.419 189.117L902.343 193.603L903.22 197.878C903.059 200.816 902.897 203.719 902.717 206.64ZM899.87 196.061L897.443 186.977C898.007 183.892 898.534 180.808 899.062 177.725C899.378 179.244 899.689 180.768 900 182.292C900.311 183.815 900.622 185.338 900.938 186.857L900.937 186.859C900.588 189.932 900.238 193.005 899.87 196.061ZM896.305 182.691C895.704 180.45 895.102 178.203 894.518 175.956C895.033 173.843 895.532 171.716 896.031 169.589C896.28 168.525 896.53 167.462 896.781 166.401C897.099 167.973 897.422 169.541 897.744 171.108C898.067 172.676 898.389 174.243 898.708 175.816C898.419 177.403 898.14 178.99 897.861 180.577C897.582 182.165 897.302 183.752 897.014 185.339C896.779 184.458 896.542 183.575 896.305 182.691ZM894.133 174.489C893.298 171.303 892.463 168.118 891.609 164.915L894.502 155.112C895.142 158.328 895.783 161.543 896.44 164.74C896.056 166.359 895.672 167.987 895.288 169.616C894.903 171.245 894.519 172.874 894.134 174.494L894.133 174.489ZM889.982 158.682C889.557 157.048 889.133 155.415 888.714 153.785C889.906 150.451 891.082 147.136 892.256 143.785C892.587 145.42 892.909 147.054 893.23 148.689C893.552 150.323 893.874 151.958 894.204 153.592C893.208 156.933 892.229 160.255 891.25 163.578C890.831 161.948 890.406 160.315 889.982 158.682ZM888.396 152.552C887.536 149.241 886.695 145.947 885.852 142.618C886.887 140.124 887.913 137.621 888.943 135.108C889.309 134.214 889.676 133.318 890.045 132.421C890.464 134.648 890.898 136.857 891.333 139.067C891.55 140.173 891.768 141.28 891.984 142.389C890.795 145.794 889.604 149.164 888.396 152.552ZM883.765 134.289C883.524 133.325 883.283 132.36 883.04 131.394C884.656 127.965 886.271 124.501 887.868 121.055C888.497 124.42 889.143 127.767 889.789 131.113L889.796 131.149C888.396 134.601 886.993 138.018 885.573 141.454C884.959 139.068 884.363 136.682 883.765 134.289ZM882.433 128.905C881.704 125.983 880.98 123.08 880.281 120.149C881.739 117.345 883.209 114.552 884.673 111.771C885.043 111.069 885.412 110.367 885.78 109.667C886.027 110.999 886.269 112.332 886.511 113.664C886.888 115.743 887.265 117.819 887.662 119.888C886.846 121.629 886.035 123.366 885.223 125.103C884.412 126.84 883.6 128.577 882.785 130.318L882.433 128.905ZM880.026 119.073C879.214 115.67 878.401 112.232 877.587 108.793L883.724 98.2048C884.32 101.633 884.932 105.042 885.544 108.451L885.557 108.518L880.026 119.073ZM877.344 107.734C876.551 104.289 875.757 100.843 874.98 97.3796L881.72 86.7222C882.125 89.1324 882.547 91.5416 882.968 93.9449C883.153 95.0007 883.338 96.0554 883.521 97.1085L877.353 107.77L877.344 107.734ZM911.988 241.231L911.967 241.178L911.965 241.143L911.988 241.231ZM910.573 235.932L909.112 230.457C908.995 228.659 908.879 226.861 908.746 225.082L909.849 230.541C909.934 231.178 910.021 231.812 910.108 232.444C910.268 233.61 910.428 234.77 910.573 235.932ZM908.15 226.919C907.517 224.489 906.867 222.077 906.217 219.666C906.21 217.255 906.203 214.844 906.16 212.435C906.565 214.362 906.958 216.301 907.349 218.224C907.448 218.716 907.548 219.206 907.647 219.695C907.704 220.511 907.763 221.325 907.821 222.137C907.936 223.734 908.051 225.326 908.15 226.919ZM905.497 216.955L903.301 208.823C903.474 206.098 903.627 203.357 903.779 200.58L905.461 208.794C905.485 211.516 905.491 214.222 905.497 216.928V216.955ZM410.036 808.244C411.625 807.907 413.213 807.57 414.821 807.25C414.322 807.429 413.831 807.608 413.341 807.786C412.851 807.965 412.36 808.144 411.861 808.323C411.289 808.448 410.709 808.577 410.125 808.706C409.161 808.92 408.187 809.136 407.219 809.345C407.692 809.158 408.16 808.976 408.628 808.794C409.095 808.612 409.563 808.431 410.035 808.244L410.036 808.244ZM421.392 805.908C421.94 805.797 422.487 805.687 423.035 805.568C422.525 805.721 421.998 805.892 421.491 806.081C420.256 806.363 419.021 806.645 417.805 806.943L419.749 806.248C420.297 806.128 420.844 806.018 421.392 805.908ZM902.028 217.964C901.026 214.971 900.025 211.978 899.04 208.967C899.41 205.946 899.779 202.889 900.148 199.832L902.591 208.897C902.417 211.925 902.227 214.972 902.034 217.984L902.028 217.964ZM898.525 207.387C897.499 204.3 896.472 201.212 895.444 198.089C896.003 194.933 896.582 191.793 897.177 188.635L899.671 197.983C899.56 198.901 899.45 199.818 899.34 200.733C899.074 202.955 898.808 205.171 898.525 207.387ZM893.411 191.92C892.89 190.325 892.369 188.73 891.844 187.141C892.611 183.908 893.398 180.692 894.184 177.476L894.189 177.456C895.024 180.643 895.879 183.847 896.731 187.016C896.435 188.631 896.144 190.241 895.852 191.852C895.561 193.462 895.27 195.072 894.974 196.686C894.45 195.1 893.93 193.51 893.411 191.92ZM891.398 185.861C890.347 182.65 889.294 179.403 888.241 176.156C889.239 172.851 890.237 169.545 891.216 166.223C892.059 169.44 892.9 172.622 893.741 175.804L893.787 175.978C893.533 177.028 893.278 178.075 893.025 179.12C892.478 181.37 891.934 183.612 891.398 185.861ZM884.7 165.146L884.69 165.116C885.881 161.746 887.088 158.358 888.315 154.986C888.646 156.261 888.972 157.536 889.298 158.811C889.818 160.845 890.337 162.878 890.876 164.902C890.379 166.568 889.879 168.239 889.378 169.909C888.874 171.589 888.371 173.269 887.871 174.944C886.803 171.691 885.751 168.418 884.7 165.146ZM883.483 161.299C882.707 158.872 881.929 156.437 881.17 154.002C881.463 153.293 881.755 152.585 882.047 151.878C883.169 149.156 884.289 146.444 885.43 143.73C885.862 145.407 886.289 147.08 886.716 148.752C887.142 150.418 887.567 152.083 887.997 153.753C887.385 155.457 886.777 157.165 886.17 158.872C885.562 160.58 884.955 162.288 884.342 163.992C884.057 163.095 883.77 162.198 883.483 161.299ZM880.808 152.932L877.682 142.815C879.315 139.367 880.946 135.884 882.56 132.42C883.152 134.836 883.761 137.252 884.369 139.66C884.613 140.625 884.856 141.589 885.098 142.552C884.38 144.279 883.667 146.01 882.953 147.741C882.24 149.473 881.526 151.204 880.808 152.932ZM876.709 139.576C875.895 136.924 875.084 134.281 874.282 131.605C876.106 128.098 877.948 124.607 879.791 121.116L879.797 121.104C880.628 124.524 881.458 127.944 882.305 131.345C880.674 134.828 879.043 138.311 877.395 141.812C877.166 141.066 876.937 140.321 876.709 139.576ZM873.978 130.622C872.95 127.195 871.923 123.768 870.913 120.322L877.083 109.696C877.88 113.154 878.693 116.592 879.525 120.047C878.603 121.814 877.676 123.577 876.748 125.34C875.823 127.099 874.898 128.858 873.978 130.622ZM870.63 119.391C869.62 115.946 868.607 112.464 867.631 108.981L874.438 98.2487C874.672 99.2731 874.905 100.296 875.137 101.318C875.697 103.78 876.255 106.237 876.832 108.692L870.63 119.391ZM916.881 262.754L916.817 262.561L916.772 262.385L916.881 262.754ZM914.545 255.639C914.145 254.425 913.741 253.208 913.345 251.998C913.225 251.096 913.108 250.188 912.992 249.28C912.875 248.37 912.758 247.459 912.637 246.554C913.132 248.42 913.625 250.251 914.101 252.1C914.38 253.442 914.628 254.776 914.876 256.115C914.951 256.52 915.026 256.926 915.102 257.332C914.918 256.769 914.732 256.204 914.545 255.639ZM910.724 244.095C910.414 243.164 910.103 242.232 909.794 241.297C909.664 238.911 909.514 236.508 909.329 234.106C909.979 236.518 910.63 238.929 911.261 241.324C911.415 242.512 911.565 243.706 911.715 244.899C911.866 246.092 912.016 247.284 912.17 248.473C911.697 247.014 911.211 245.557 910.724 244.095ZM908.936 238.694C908.038 235.995 907.141 233.295 906.225 230.579C906.219 227.864 906.232 225.166 906.262 222.45C906.467 223.222 906.671 223.993 906.874 224.762C907.384 226.696 907.893 228.622 908.42 230.548C908.487 231.64 908.56 232.731 908.632 233.821C908.741 235.451 908.849 237.079 908.938 238.701L908.936 238.694ZM905.5 228.44L904.151 224.352L902.632 219.773C902.688 218.891 902.745 218.007 902.802 217.122C902.932 215.112 903.062 213.096 903.175 211.08L905.506 219.741C905.505 222.652 905.504 225.564 905.5 228.44ZM407.383 807.121C409.523 806.736 411.664 806.351 413.768 805.968C412.44 806.505 411.076 807.044 409.73 807.564C408.215 807.862 406.728 808.168 405.223 808.477C404.604 808.604 403.981 808.732 403.352 808.86C404.227 808.475 405.109 808.097 405.984 807.722C406.453 807.521 406.92 807.321 407.383 807.121ZM418.941 805.063C420.267 804.828 421.583 804.594 422.878 804.344C421.739 804.745 420.6 805.147 419.444 805.568L413.828 806.733C415.018 806.275 416.207 805.816 417.378 805.341C417.9 805.248 418.421 805.155 418.941 805.063ZM427.316 803.511C428.836 803.214 430.356 802.916 431.894 802.636C431.474 802.777 431.051 802.915 430.629 803.052C430.03 803.248 429.435 803.442 428.859 803.641C427.394 803.954 425.893 804.268 424.408 804.564C424.89 804.386 425.375 804.212 425.861 804.038C426.348 803.864 426.834 803.69 427.316 803.511ZM437.286 801.608C438.275 801.411 439.248 801.233 440.22 801.054C439.587 801.232 438.99 801.408 438.358 801.621C437.754 801.744 437.167 801.872 436.584 801.999C436.127 802.098 435.673 802.197 435.216 802.293C435.557 802.176 435.904 802.063 436.25 801.951C436.597 801.838 436.944 801.725 437.286 801.608ZM905.492 239.711L901.911 230.744C902.117 227.825 902.321 224.873 902.525 221.92L902.541 221.689L903.503 224.584L905.533 230.671C905.513 232.646 905.508 234.621 905.503 236.591C905.5 237.633 905.497 238.673 905.492 239.711ZM899.476 224.599C898.865 223.06 898.254 221.522 897.642 219.975C898.044 216.88 898.445 213.751 898.845 210.621L901.924 219.883C901.794 222.048 901.648 224.214 901.502 226.374C901.437 227.325 901.373 228.275 901.31 229.223C900.698 227.675 900.087 226.137 899.476 224.599ZM897.103 218.611L893.371 209.17C893.596 207.961 893.823 206.749 894.05 205.535C894.423 203.541 894.798 201.541 895.166 199.533C896.215 202.709 897.264 205.885 898.311 209.024C897.914 212.226 897.518 215.427 897.103 218.611ZM892.86 207.878C891.6 204.689 890.34 201.501 889.096 198.294C889.899 195.017 890.702 191.74 891.522 188.444C892.192 190.509 892.868 192.566 893.542 194.615C893.928 195.789 894.313 196.961 894.696 198.13C894.088 201.379 893.482 204.663 892.874 207.911L892.86 207.878ZM888.642 197.176C887.392 193.922 886.123 190.651 884.855 187.38C885.394 185.591 885.934 183.812 886.472 182.04C886.944 180.485 887.414 178.936 887.88 177.391C888.933 180.667 890.003 183.925 891.073 187.183L891.079 187.2C890.278 190.513 889.46 193.844 888.642 197.176ZM880.668 176.452L880.645 176.394C881.249 174.7 881.857 173.002 882.464 171.304C883.073 169.604 883.681 167.905 884.285 166.21C884.682 167.441 885.077 168.669 885.471 169.896C886.144 171.992 886.814 174.08 887.492 176.162C886.5 179.532 885.472 182.903 884.445 186.275L884.438 186.296C883.194 183.026 881.931 179.739 880.668 176.452ZM878.614 171.06C877.89 169.165 877.165 167.265 876.451 165.352C877.169 163.625 877.883 161.903 878.597 160.18C879.311 158.457 880.025 156.735 880.743 155.008C881.221 156.503 881.692 157.998 882.162 159.49C882.751 161.362 883.339 163.23 883.938 165.085C883.317 166.799 882.705 168.511 882.093 170.224C881.482 171.936 880.87 173.649 880.249 175.361C879.709 173.928 879.162 172.495 878.614 171.06ZM876.075 164.373C874.82 161.012 873.562 157.616 872.323 154.236C873.954 150.753 875.603 147.251 877.234 143.768C878.278 147.176 879.338 150.566 880.399 153.955C878.965 157.445 877.529 160.899 876.075 164.373ZM869.484 146.485C869.072 145.344 868.66 144.203 868.246 143.064C869.312 141.053 870.371 139.036 871.428 137.024C872.218 135.521 873.007 134.02 873.796 132.525C874.543 135.016 875.308 137.505 876.071 139.988C876.358 140.922 876.645 141.854 876.93 142.785C876.106 144.535 875.278 146.291 874.449 148.047C873.621 149.802 872.793 151.558 871.969 153.309C871.131 151.045 870.307 148.765 869.484 146.485ZM867.928 142.134C866.687 138.719 865.444 135.268 864.237 131.816L870.424 121.171C870.708 122.127 870.991 123.082 871.273 124.035C872.013 126.536 872.752 129.03 873.509 131.523C871.649 135.033 869.79 138.58 867.932 142.126L867.928 142.134ZM862.967 128.232C862.073 125.681 861.176 123.123 860.299 120.564L867.104 109.796C868.099 113.296 869.111 116.777 870.124 120.258L863.922 130.958C863.605 130.05 863.286 129.142 862.967 128.232ZM922.931 283.857L922.889 283.752L922.867 283.664L922.931 283.857ZM919.826 275.927C919.469 275.022 919.111 274.117 918.758 273.208C918.601 272.316 918.445 271.434 918.288 270.552C918.134 269.683 917.98 268.814 917.826 267.936C918.409 269.779 918.99 271.587 919.591 273.412L920.895 278.646C920.542 277.736 920.184 276.831 919.826 275.927ZM917.427 269.78C916.494 267.419 915.561 265.059 914.609 262.682C914.319 260.322 914.046 257.944 913.792 255.582C914.179 256.776 914.57 257.964 914.961 259.153C915.352 260.342 915.743 261.53 916.13 262.724L917.427 269.78ZM911.479 254.788C911.128 253.902 910.775 253.014 910.423 252.123C910.277 249.451 910.11 246.728 909.945 244.04C910.826 246.76 911.724 249.462 912.622 252.163C912.963 254.806 913.269 257.45 913.574 260.095C912.882 258.323 912.182 256.56 911.479 254.788ZM909.594 250.025L906.178 241.477C906.189 240.03 906.194 238.587 906.2 237.145C906.206 235.702 906.212 234.259 906.222 232.812C906.573 233.866 906.921 234.918 907.268 235.968C907.874 237.8 908.478 239.626 909.088 241.443C909.263 244.309 909.438 247.175 909.594 250.025ZM397.478 806.779C398.824 806.563 400.169 806.346 401.524 806.138C401.013 806.38 400.5 806.621 399.987 806.862C398.962 807.342 397.937 807.823 396.928 808.319C395.105 808.649 393.263 808.961 391.409 809.276C390.673 809.401 389.935 809.526 389.196 809.653C390.619 808.896 392.025 808.158 393.432 807.421C394.787 807.212 396.133 806.996 397.478 806.779ZM407.421 805.194C408.808 804.975 410.189 804.757 411.564 804.534C410.832 804.86 410.086 805.183 409.34 805.505C408.594 805.827 407.848 806.149 407.116 806.475C405.868 806.695 404.626 806.919 403.383 807.144C402.141 807.368 400.898 807.592 399.651 807.812C400.373 807.46 401.105 807.117 401.836 806.773C402.567 806.429 403.299 806.085 404.021 805.733C405.158 805.551 406.291 805.372 407.421 805.194ZM419.115 803.339C419.891 803.211 420.667 803.083 421.445 802.958C420.976 803.143 420.5 803.329 420.019 803.516C419.048 803.894 418.061 804.279 417.091 804.678C414.828 805.088 412.528 805.5 410.229 805.911C411.456 805.373 412.711 804.833 413.934 804.306L414.434 804.092C416.005 803.851 417.56 803.595 419.115 803.339ZM424.843 802.379L431.25 801.313C430.549 801.566 429.838 801.82 429.127 802.073C428.419 802.326 427.71 802.579 427.011 802.831C424.906 803.215 422.837 803.596 420.716 803.998C421.226 803.796 421.744 803.596 422.263 803.396C423.131 803.062 424.001 802.726 424.843 802.379ZM435.204 800.65C437.025 800.354 438.846 800.058 440.649 799.745C440.044 799.948 439.434 800.146 438.824 800.345C438.214 800.544 437.604 800.742 436.999 800.945L431.484 801.997C432.236 801.715 433.009 801.438 433.773 801.164C434.253 800.992 434.731 800.821 435.197 800.651L435.204 800.65ZM447.542 798.563C448.273 798.434 449.004 798.305 449.744 798.175C448.708 798.5 447.653 798.808 446.651 799.095C445.255 799.368 443.823 799.643 442.408 799.899C443.356 799.597 444.356 799.274 445.321 798.953C446.067 798.823 446.805 798.693 447.542 798.563ZM455.705 797.117L458.271 796.672C457.792 796.813 457.279 796.944 456.776 797.073C456.651 797.104 456.527 797.136 456.405 797.168C455.954 797.255 455.508 797.346 455.062 797.438C454.616 797.529 454.17 797.62 453.719 797.708C454.044 797.609 454.378 797.511 454.712 797.412C455.046 797.314 455.38 797.215 455.705 797.117ZM904.086 248.073C903.102 245.957 902.115 243.833 901.136 241.7C901.377 238.596 901.582 235.495 901.787 232.394L904.978 240.436L905.453 241.606C905.439 243.134 905.42 244.667 905.401 246.2C905.382 247.732 905.363 249.265 905.349 250.793C904.929 249.888 904.508 248.981 904.086 248.073ZM897.653 234.109C897.171 233.067 896.689 232.025 896.209 230.984L897.454 221.432C897.959 222.696 898.457 223.955 898.954 225.21C899.702 227.097 900.446 228.976 901.203 230.854L901.102 232.308C900.915 234.987 900.728 237.682 900.525 240.34C899.579 238.273 898.616 236.191 897.653 234.109ZM895.621 229.752C894.169 226.597 892.717 223.442 891.263 220.252C891.498 219.021 891.731 217.793 891.964 216.567C892.349 214.539 892.732 212.519 893.123 210.505C894.06 212.923 895.006 215.311 895.955 217.706C896.269 218.498 896.584 219.291 896.898 220.087C896.487 223.342 896.074 226.562 895.644 229.801L895.621 229.752ZM890.754 219.119C889.274 215.896 887.794 212.672 886.33 209.43C886.54 208.587 886.751 207.742 886.962 206.897C887.576 204.438 888.191 201.972 888.788 199.508C890.073 202.759 891.358 206.011 892.625 209.246C892.019 212.53 891.396 215.833 890.754 219.119ZM885.839 208.375C884.359 205.119 882.878 201.864 881.414 198.589C882.462 195.228 883.492 191.849 884.486 188.472C885.13 190.116 885.769 191.764 886.409 193.413C887.048 195.061 887.688 196.71 888.331 198.354C887.513 201.685 886.679 205.035 885.844 208.385L885.839 208.375ZM880.984 197.595C879.517 194.281 878.049 190.968 876.563 187.638C877.329 185.506 878.103 183.38 878.879 181.249C879.343 179.974 879.808 178.696 880.273 177.414C881.545 180.756 882.816 184.062 884.105 187.386C883.581 189.086 883.062 190.791 882.543 192.496C882.025 194.197 881.507 195.898 880.984 197.595ZM876.119 186.698L871.711 176.651C873.166 173.213 874.602 169.758 876.021 166.323C877.296 169.7 878.568 173.042 879.86 176.401C879.239 178.115 878.613 179.833 877.988 181.552C877.364 183.269 876.739 184.986 876.119 186.698ZM870.171 173.117C869.085 170.624 868.002 168.139 866.927 165.624C868.591 162.145 870.236 158.649 871.882 155.153L871.89 155.135C873.15 158.567 874.407 161.963 875.682 165.341L871.323 175.761C870.939 174.878 870.555 173.997 870.171 173.117ZM866.558 164.751C865.103 161.348 863.649 157.944 862.211 154.522C863.038 152.945 863.868 151.371 864.697 149.8C865.733 147.834 866.769 145.872 867.793 143.91C869.035 147.361 870.276 150.776 871.536 154.208C869.888 157.71 868.223 161.23 866.558 164.751ZM858.663 145.955C858.302 145.078 857.941 144.201 857.579 143.326C859.634 139.748 861.691 136.206 863.783 132.662C864.986 136.102 866.224 139.541 867.462 142.979L867.476 143.016C866.546 144.791 865.607 146.566 864.668 148.341C863.729 150.116 862.791 151.891 861.861 153.666C860.788 151.113 859.724 148.531 858.663 145.955ZM857.212 142.489C855.791 139.048 854.368 135.571 852.981 132.093L859.803 121.306C860.996 124.813 862.221 128.282 863.447 131.752C862.402 133.542 861.366 135.331 860.33 137.12C859.294 138.91 858.257 140.699 857.212 142.489ZM926.167 295.878C925.922 295.34 925.677 294.8 925.43 294.259C925.013 292.531 924.597 290.803 924.179 289.04C924.523 289.941 924.872 290.837 925.22 291.734C925.568 292.63 925.916 293.527 926.26 294.428C926.53 295.278 926.791 296.13 927.052 296.981C927.313 297.834 927.574 298.686 927.844 299.539C927.281 298.327 926.726 297.107 926.167 295.878ZM923.87 290.897C922.795 288.544 921.719 286.192 920.625 283.823C920.247 281.486 919.833 279.15 919.401 276.798L919.406 276.812C920.339 279.204 921.273 281.595 922.187 283.969C922.625 285.734 923.053 287.509 923.478 289.271C923.609 289.814 923.74 290.357 923.87 290.897ZM919.487 281.313C918.271 278.664 917.054 276.016 915.818 273.351C915.532 270.723 915.245 268.095 914.939 265.45C915.645 267.216 916.344 268.99 917.039 270.756C917.383 271.63 917.727 272.502 918.07 273.37C918.262 274.459 918.459 275.548 918.656 276.635C918.94 278.198 919.223 279.758 919.487 281.313ZM912.141 265.42C911.747 264.57 911.353 263.718 910.957 262.864L910.546 254.367C911.678 257.202 912.793 260.02 913.907 262.838L913.923 262.88C914.254 265.675 914.569 268.489 914.883 271.303L914.886 271.33C913.967 269.369 913.056 267.399 912.141 265.42ZM910.148 261.122L907.839 256.14L906.074 252.289L906.173 243.335L909.716 252.269C909.825 254.245 909.917 256.222 910.009 258.193C910.055 259.171 910.1 260.148 910.148 261.122ZM380.651 806.705C382.719 806.438 384.782 806.171 386.811 805.89L382.553 808.373C380.581 808.684 378.592 808.979 376.604 809.275C375.61 809.422 374.616 809.57 373.624 809.72C375.021 808.84 376.382 807.963 377.743 807.086L377.748 807.082C378.715 806.955 379.684 806.83 380.651 806.705ZM388.672 805.627C391.631 805.197 394.574 804.786 397.552 804.373C396.078 805.186 394.638 805.961 393.145 806.757C390.28 807.2 387.379 807.644 384.478 808.088L384.466 808.09C385.041 807.754 385.611 807.419 386.178 807.085C387.01 806.595 387.838 806.108 388.672 805.627ZM399.61 804.117C402.445 803.712 405.317 803.305 408.136 802.918C406.83 803.541 405.566 804.176 404.271 804.827L403.753 805.087C400.938 805.545 398.14 805.984 395.306 806.425C396.355 805.879 397.376 805.326 398.402 804.77C398.803 804.553 399.205 804.335 399.61 804.117ZM414.068 802.069C415.578 801.853 417.083 801.638 418.592 801.417C418.2 801.594 417.811 801.771 417.422 801.948C416.342 802.44 415.268 802.929 414.164 803.41C411.508 803.841 408.817 804.274 406.143 804.688C406.856 804.346 407.56 803.995 408.264 803.644C408.968 803.292 409.673 802.941 410.387 802.598C411.622 802.419 412.847 802.244 414.068 802.069ZM425.092 800.472C426.391 800.28 427.69 800.088 428.994 799.901C427.6 800.463 426.237 801.024 424.833 801.601L424.556 801.715C422.695 802.038 420.851 802.34 418.992 802.645C418.289 802.76 417.583 802.876 416.874 802.993C417.517 802.708 418.149 802.419 418.778 802.131C419.583 801.763 420.384 801.397 421.197 801.042C422.499 800.855 423.795 800.663 425.092 800.472ZM435.926 798.867C436.994 798.71 438.057 798.553 439.111 798.4C437.711 798.941 436.329 799.463 434.928 799.969C433.287 800.256 431.646 800.527 429.998 800.798C429.265 800.919 428.531 801.04 427.795 801.163C428.485 800.884 429.166 800.597 429.846 800.31C430.527 800.022 431.208 799.735 431.899 799.456C433.24 799.263 434.586 799.065 435.926 798.867ZM448.581 796.959L449.154 796.868C447.77 797.355 446.402 797.822 445.035 798.29C444.133 798.439 443.222 798.592 442.306 798.745C441.083 798.95 439.852 799.156 438.627 799.355C439.266 799.115 439.899 798.871 440.533 798.626C441.167 798.382 441.802 798.137 442.441 797.896C444.5 797.604 446.528 797.283 448.581 796.959ZM453.086 796.26C455.036 795.974 456.966 795.672 458.896 795.37C458.504 795.493 458.116 795.615 457.728 795.738C456.951 795.983 456.175 796.228 455.367 796.474C454.013 796.697 452.66 796.938 451.313 797.177C450.723 797.282 450.133 797.387 449.546 797.49C450.756 797.084 451.895 796.682 453.086 796.26ZM465.627 794.324C466.462 794.196 467.292 794.069 468.106 793.937C467.455 794.115 466.814 794.302 466.162 794.492C465.915 794.564 465.667 794.637 465.415 794.709C464.774 794.82 464.124 794.934 463.47 795.049C462.57 795.206 461.663 795.365 460.762 795.518C461.228 795.376 461.68 795.231 462.132 795.086C462.584 794.94 463.036 794.795 463.501 794.654C464.208 794.541 464.919 794.432 465.627 794.324ZM475.498 792.738C476.02 792.655 476.542 792.573 477.064 792.482C476.536 792.618 476.043 792.752 475.534 792.905C474.383 793.093 473.287 793.296 472.138 793.52L473.931 792.993C474.453 792.902 474.975 792.82 475.498 792.738ZM910.641 272.098L905.86 263.072C905.908 260.033 905.975 257.01 906.057 253.934L907.211 256.425L910.251 263.01C910.35 265.041 910.433 267.057 910.515 269.073C910.557 270.081 910.598 271.088 910.641 272.098ZM905.147 261.789C903.532 258.716 901.898 255.626 900.264 252.536C900.324 251.813 900.385 251.089 900.445 250.365C900.646 247.961 900.848 245.551 901.019 243.153L905.334 252.473C905.303 254.602 905.257 256.733 905.21 258.857C905.188 259.836 905.167 260.813 905.147 261.789ZM899.647 251.373L894.683 241.946C895.132 238.724 895.581 235.502 896.013 232.299C897.483 235.469 898.935 238.623 900.386 241.776L900.41 241.829C900.334 242.796 900.258 243.761 900.183 244.725C900.01 246.945 899.837 249.158 899.647 251.373ZM894.105 240.852L889.08 231.268C889.738 228.007 890.379 224.729 891.019 221.451L891.024 221.427C892.021 223.583 893.003 225.725 893.984 227.867C894.477 228.943 894.97 230.019 895.465 231.097C895.018 234.354 894.571 237.612 894.105 240.852ZM886.43 226.159C885.461 224.28 884.49 222.398 883.507 220.516C884.38 217.2 885.216 213.885 886.034 210.554C886.775 212.183 887.521 213.808 888.266 215.433C889.011 217.058 889.757 218.683 890.498 220.312C889.858 223.634 889.2 226.939 888.541 230.243C887.836 228.884 887.133 227.522 886.43 226.159ZM883.027 219.578C881.313 216.314 879.633 213.048 877.952 209.746C879.017 206.365 880.066 203.004 881.112 199.606C882.018 201.636 882.93 203.646 883.84 205.652C884.422 206.937 885.004 208.221 885.584 209.507C885.365 210.372 885.148 211.235 884.931 212.098C884.302 214.596 883.674 217.086 883.027 219.578ZM875.557 205.041C874.513 203.004 873.468 200.964 872.429 198.903C873.057 197.184 873.685 195.474 874.313 193.764C874.944 192.047 875.575 190.33 876.205 188.604C877.331 191.168 878.476 193.732 879.619 196.287C879.969 197.069 880.318 197.85 880.666 198.63C879.619 202.028 878.556 205.444 877.491 208.825C876.848 207.562 876.203 206.302 875.557 205.041ZM871.988 198.034C870.305 194.696 868.62 191.323 866.954 187.967C868.426 184.511 869.879 181.038 871.332 177.564C872.799 180.939 874.283 184.295 875.766 187.651L875.78 187.681C875.149 189.408 874.513 191.141 873.878 192.873C873.247 194.595 872.615 196.317 871.988 198.034ZM866.551 187.132C864.866 183.759 863.198 180.367 861.529 176.976C862.586 174.767 863.641 172.544 864.693 170.33C865.3 169.05 865.907 167.773 866.511 166.504C867.99 169.88 869.45 173.239 870.911 176.598L870.944 176.675C869.491 180.148 868.021 183.64 866.551 187.132ZM861.126 176.14C859.458 172.749 857.807 169.338 856.155 165.928L856.165 165.911C858.04 162.384 859.916 158.857 861.772 155.314C862.127 156.15 862.48 156.986 862.832 157.82C863.93 160.417 865.025 163.007 866.14 165.595C864.475 169.116 862.81 172.637 861.126 176.14ZM855.773 165.145C854.12 161.699 852.485 158.269 850.868 154.821C852.958 151.242 855.031 147.681 857.105 144.12C857.584 145.272 858.062 146.425 858.539 147.579C859.496 149.889 860.452 152.2 861.424 154.493C860.475 156.271 859.535 158.048 858.595 159.825C857.658 161.598 856.72 163.371 855.773 165.145ZM850.521 154.037C848.903 150.589 847.284 147.105 845.7 143.619L852.538 132.813C853.944 136.309 855.367 139.785 856.79 143.262C855.638 145.23 854.496 147.197 853.356 149.161C852.412 150.789 851.468 152.414 850.521 154.037ZM934.585 317.603C934.135 316.735 933.686 315.866 933.227 314.998C932.742 313.31 932.238 311.605 931.715 309.883C932.195 310.934 932.662 311.985 933.128 313.033C933.45 313.758 933.772 314.481 934.096 315.201C934.724 316.881 935.333 318.544 935.942 320.208C935.483 319.34 935.034 318.471 934.585 317.603ZM930.37 309.527C929.543 307.937 928.71 306.336 927.861 304.736C927.342 302.442 926.824 300.148 926.251 297.84C927.326 300.192 928.383 302.528 929.44 304.863C930.129 307.122 930.799 309.365 931.469 311.607L931.492 311.681C931.118 310.967 930.745 310.248 930.37 309.527ZM926.564 302.252C925.19 299.666 923.814 297.044 922.438 294.423C922.008 291.803 921.56 289.166 921.096 286.548C922.314 289.231 923.531 291.88 924.748 294.528L926.564 302.252ZM919.502 288.852C918.652 287.239 917.801 285.622 916.938 284.007C916.753 282.148 916.551 280.275 916.349 278.402C916.248 277.464 916.147 276.525 916.048 275.589C916.582 276.75 917.119 277.908 917.655 279.065C918.421 280.719 919.186 282.37 919.939 284.021C920.109 285.023 920.282 286.024 920.454 287.022C920.762 288.809 921.069 290.591 921.361 292.374C920.74 291.203 920.121 290.028 919.502 288.852ZM916.06 282.34L911.419 273.574C911.324 271.622 911.244 269.67 911.165 267.712C911.125 266.721 911.084 265.729 911.042 264.735C911.602 265.948 912.164 267.159 912.726 268.367C913.527 270.091 914.327 271.811 915.114 273.532L915.213 274.438C915.502 277.095 915.789 279.724 916.06 282.34ZM365.877 805.536C367.445 805.353 369.01 805.171 370.579 804.992C370.233 805.233 369.886 805.475 369.537 805.717C368.512 806.429 367.476 807.148 366.451 807.897C364.828 808.102 363.223 808.315 361.618 808.528C360.013 808.741 358.408 808.954 356.785 809.159C358.069 808.142 359.336 807.144 360.603 806.146C362.373 805.945 364.127 805.74 365.877 805.536ZM375.286 804.448C377.431 804.2 379.576 803.952 381.69 803.705C380.839 804.263 379.975 804.808 379.105 805.357C378.547 805.709 377.987 806.062 377.427 806.421C375.763 806.646 374.085 806.866 372.402 807.086C370.927 807.28 369.449 807.474 367.975 807.671C368.428 807.354 368.884 807.039 369.339 806.724C370.249 806.095 371.159 805.466 372.052 804.822C373.127 804.698 374.206 804.573 375.286 804.448ZM388.217 802.919C389.746 802.731 391.272 802.544 392.816 802.364C391.344 803.212 389.855 804.08 388.367 804.947C385.317 805.364 382.232 805.783 379.128 806.185C380.527 805.305 381.942 804.406 383.322 803.509C384.974 803.317 386.598 803.118 388.217 802.919ZM398.918 801.612C400.556 801.413 402.188 801.215 403.816 801.011C403.213 801.333 402.61 801.661 402.004 801.989C401.112 802.474 400.215 802.962 399.305 803.437C397.907 803.63 396.513 803.826 395.117 804.022C393.501 804.25 391.882 804.478 390.246 804.701C391.112 804.186 391.984 803.676 392.852 803.169C393.44 802.825 394.027 802.483 394.607 802.141C396.048 801.962 397.485 801.787 398.918 801.612ZM409.989 800.254C411.57 800.059 413.147 799.864 414.709 799.665C413.944 800.046 413.183 800.422 412.423 800.799C411.662 801.176 410.901 801.552 410.136 801.933C407.264 802.341 404.322 802.752 401.396 803.144C402.125 802.747 402.858 802.354 403.592 801.961C404.325 801.568 405.057 801.175 405.786 800.778C407.185 800.601 408.589 800.428 409.989 800.254ZM416.891 799.384C419.8 799.011 422.673 798.639 425.546 798.268C424.77 798.623 423.998 798.974 423.225 799.325C422.455 799.675 421.685 800.024 420.911 800.379C418.058 800.803 415.258 801.206 412.387 801.614C413.144 801.241 413.893 800.87 414.641 800.498C415.388 800.127 416.135 799.756 416.891 799.384ZM428.006 797.953C430.751 797.607 433.497 797.26 436.188 796.899L436.183 796.901C434.666 797.537 433.148 798.174 431.612 798.793C430.773 798.917 429.932 799.042 429.09 799.168C427.23 799.446 425.364 799.725 423.497 799.987C425.014 799.315 426.496 798.644 427.994 797.955L428.006 797.953ZM445.866 795.604L446.774 795.48C446.261 795.675 445.75 795.871 445.239 796.068C444.216 796.462 443.194 796.855 442.155 797.233C439.64 797.621 437.106 797.992 434.536 798.365C435.268 798.057 435.996 797.754 436.724 797.452C437.454 797.148 438.185 796.844 438.919 796.535C441.257 796.233 443.552 795.92 445.866 795.604ZM449.952 795.071C452.368 794.743 454.784 794.415 457.165 794.089C455.709 794.58 454.273 795.087 452.783 795.615L445.556 796.726C447.027 796.181 448.462 795.638 449.914 795.076L449.952 795.071ZM460.747 793.608C462.91 793.311 465.108 793.012 467.235 792.716C465.883 793.13 464.549 793.56 463.162 794.011C461.037 794.342 458.876 794.675 456.715 795.007C458.078 794.541 459.404 794.077 460.731 793.613L460.747 793.608ZM474.377 791.682C475.33 791.545 476.282 791.408 477.231 791.276C476.82 791.394 476.413 791.512 476.006 791.629C475.194 791.864 474.382 792.099 473.538 792.336C472.088 792.563 470.668 792.798 469.226 793.037C468.749 793.116 468.269 793.196 467.784 793.276C469.049 792.885 470.278 792.496 471.524 792.089C472.472 791.956 473.425 791.819 474.377 791.682ZM486.048 790.006L486.641 789.921C486.175 790.045 485.713 790.173 485.251 790.301C484.789 790.429 484.327 790.557 483.86 790.681C483.395 790.756 482.931 790.83 482.468 790.903C481.435 791.066 480.408 791.229 479.381 791.409L482.282 790.553C483.535 790.361 484.802 790.182 486.048 790.006ZM492.738 789.052C493.748 788.907 494.687 788.767 495.679 788.605L493.986 789.019C493.361 789.111 492.735 789.217 492.106 789.324C491.755 789.384 491.402 789.444 491.048 789.502L492.738 789.052ZM908.291 278.425C907.381 276.898 906.471 275.372 905.557 273.841L905.557 273.825C905.656 270.735 905.754 267.645 905.817 264.557L910.08 272.611L910.679 273.757C910.813 276.858 910.928 279.942 911.024 283.009C910.11 281.478 909.2 279.951 908.291 278.425ZM901.195 266.479C900.575 265.438 899.956 264.397 899.339 263.357C899.495 261.657 899.642 259.957 899.789 258.252C899.915 256.788 900.042 255.32 900.175 253.845L900.18 253.854C901.833 256.993 903.486 260.133 905.137 263.236C905.061 266.42 904.984 269.568 904.887 272.699C903.667 270.636 902.431 268.557 901.195 266.479ZM893.095 252.861L893.083 252.84L893.087 252.812C893.57 249.598 894.053 246.383 894.517 243.152C895.741 245.487 896.975 247.811 898.203 250.127C898.656 250.98 899.107 251.831 899.558 252.682C899.434 254.069 899.314 255.453 899.194 256.833C899.034 258.668 898.875 260.497 898.71 262.32C896.827 259.179 894.961 256.02 893.095 252.861ZM889.152 246.143C888.389 244.848 887.624 243.552 886.859 242.249C887.536 238.961 888.213 235.673 888.872 232.369C889.333 233.251 889.793 234.133 890.252 235.013C891.481 237.371 892.706 239.719 893.939 242.058C893.478 245.317 892.998 248.559 892.518 251.802L892.511 251.853C891.396 249.947 890.276 248.047 889.152 246.143ZM883.083 235.786C882.265 234.389 881.446 232.99 880.63 231.587C881.293 229.101 881.936 226.616 882.581 224.123C882.802 223.272 883.022 222.42 883.243 221.567C884.941 224.85 886.639 228.132 888.335 231.38C887.932 233.405 887.515 235.431 887.097 237.461C886.833 238.744 886.569 240.028 886.307 241.315C885.241 239.472 884.163 237.631 883.083 235.786ZM880.119 230.722L874.434 220.852C875.518 217.488 876.583 214.108 877.63 210.71C878.864 213.12 880.108 215.52 881.346 217.911C881.813 218.812 882.28 219.713 882.745 220.612C881.893 223.98 881.006 227.351 880.119 230.722ZM869.403 212.065C869.027 211.404 868.649 210.742 868.272 210.08C869.135 207.807 869.982 205.519 870.828 203.231C871.253 202.085 871.677 200.94 872.103 199.796C873.804 203.15 875.504 206.468 877.204 209.787C876.124 213.222 875.042 216.621 873.96 220.021C872.428 217.373 870.918 214.724 869.403 212.065ZM867.816 209.265C865.919 205.939 864.039 202.595 862.159 199.251C862.659 198.079 863.16 196.904 863.662 195.727C864.641 193.433 865.624 191.128 866.607 188.808C868.275 192.2 869.96 195.573 871.662 198.927C871.015 200.65 870.377 202.373 869.739 204.096C869.101 205.819 868.463 207.542 867.816 209.265ZM860.266 195.874C858.876 193.369 857.481 190.855 856.096 188.33C857.779 184.826 859.463 181.322 861.128 177.801C862.779 181.212 864.466 184.621 866.151 187.993C864.681 191.486 863.195 194.996 861.706 198.472C861.227 197.607 860.747 196.741 860.266 195.874ZM855.678 187.549C853.813 184.15 851.965 180.732 850.116 177.315L850.135 177.279C852.008 173.759 853.88 170.238 855.733 166.701C856.704 168.725 857.687 170.735 858.667 172.741C859.356 174.151 860.043 175.558 860.725 176.966C859.06 180.487 857.378 184.026 855.678 187.549ZM844.208 166.315L844.189 166.279C845.232 164.489 846.278 162.695 847.324 160.901C848.36 159.125 849.395 157.349 850.427 155.578C852.063 159.043 853.698 162.472 855.351 165.918C853.474 169.486 851.596 173.018 849.7 176.57C847.859 173.164 846.034 169.739 844.208 166.315ZM843.78 165.527C841.969 162.08 840.159 158.632 838.365 155.166L845.223 144.378C845.575 145.139 845.927 145.903 846.279 146.667C847.53 149.382 848.786 152.108 850.063 154.812L843.792 165.551L843.78 165.527ZM945.147 340.549C944.161 338.852 943.175 337.156 942.17 335.442C941.597 333.777 941.004 332.095 940.395 330.431C940.835 331.298 941.279 332.169 941.723 333.04C942.169 333.915 942.616 334.791 943.057 335.662C943.406 336.482 943.754 337.294 944.102 338.106C944.45 338.917 944.798 339.728 945.147 340.549ZM940.258 332.171C938.938 329.904 937.598 327.619 936.239 325.318C936.121 324.903 936.002 324.488 935.882 324.071C935.359 322.242 934.831 320.395 934.279 318.549C934.783 319.527 935.291 320.503 935.797 321.477C936.495 322.819 937.191 324.157 937.875 325.496C938.266 326.608 938.666 327.72 939.066 328.831C939.466 329.944 939.867 331.058 940.258 332.171ZM932.088 318.298C931.466 317.25 930.841 316.201 930.217 315.145C929.649 312.604 929.079 310.027 928.509 307.451L932.581 315.266C933.203 317.337 933.801 319.409 934.393 321.463C934.53 321.936 934.666 322.408 934.802 322.878C933.902 321.349 932.997 319.826 932.088 318.298ZM929.039 313.209C927.423 310.44 925.771 307.672 924.1 304.888C923.682 302.142 923.245 299.38 922.772 296.619C923.342 297.705 923.911 298.785 924.479 299.863C925.383 301.579 926.284 303.288 927.179 305.005C927.811 307.739 928.443 310.473 929.039 313.209ZM920.903 299.517C919.935 297.89 918.965 296.26 917.984 294.631C917.803 292.658 917.606 290.686 917.41 288.72C917.316 287.781 917.223 286.843 917.131 285.907C918.084 287.697 919.031 289.493 919.975 291.285C920.568 292.412 921.161 293.537 921.754 294.656C922.232 297.524 922.673 300.358 923.116 303.227C922.377 301.993 921.641 300.756 920.903 299.517ZM917.118 293.178L914.345 288.525L911.807 284.252C911.712 281.22 911.601 278.208 911.49 275.195C911.922 276.015 912.353 276.833 912.784 277.65C913.94 279.844 915.091 282.03 916.252 284.205C916.351 285.235 916.452 286.264 916.554 287.291C916.747 289.256 916.94 291.216 917.118 293.178ZM945.705 342.892C946.27 343.87 946.833 344.847 947.4 345.82C968.967 397.188 984.974 445.2 988.141 489.663C997.105 615.223 903.821 712.925 545.288 779.923C899.181 705.177 984.427 598.341 973.207 463.205C969.978 424.14 958.654 382.695 943.435 338.981C944.2 340.285 944.953 341.59 945.705 342.892ZM951.667 353.269C952.156 354.121 952.644 354.973 953.128 355.83C980.82 412.383 1001.31 464.543 1004.18 512.166C1011.2 627.651 914.608 716.496 566.096 776.659C908.055 709.675 997.666 613.084 988.853 489.624C985.779 446.531 970.721 400.182 950.204 350.703C950.689 351.562 951.178 352.415 951.667 353.269ZM342.035 804.568C345.552 804.234 349.068 803.9 352.514 803.57L352.511 803.572C351.284 804.639 350.058 805.706 348.829 806.737C345.439 807.119 341.941 807.507 338.496 807.874C339.084 807.315 339.672 806.747 340.262 806.176C340.813 805.644 341.366 805.109 341.924 804.578L342.035 804.568ZM358.983 802.93C360.714 802.755 362.445 802.579 364.186 802.413C363.096 803.255 362.03 804.095 360.978 804.925C360.756 805.099 360.535 805.273 360.315 805.447C356.908 805.848 353.517 806.23 350.091 806.614C350.748 806.042 351.412 805.475 352.072 804.91C352.644 804.421 353.213 803.934 353.775 803.447C355.517 803.28 357.25 803.105 358.983 802.93ZM370.44 801.776C372.224 801.599 374.003 801.423 375.768 801.243C375.097 801.726 374.436 802.209 373.774 802.692C373.113 803.175 372.452 803.657 371.782 804.14C370.206 804.319 368.627 804.502 367.043 804.685C365.255 804.892 363.463 805.099 361.665 805.302C362.307 804.793 362.944 804.289 363.582 803.785C364.22 803.282 364.858 802.778 365.5 802.269C367.145 802.102 368.794 801.939 370.44 801.776ZM377.207 801.11C380.6 800.764 383.957 800.419 387.331 800.056C386.708 800.468 386.081 800.877 385.452 801.287C384.655 801.807 383.854 802.329 383.055 802.862C380.864 803.128 378.64 803.378 376.41 803.63C375.353 803.749 374.295 803.868 373.239 803.989C373.829 803.564 374.412 803.138 374.993 802.715C375.732 802.177 376.466 801.641 377.207 801.11ZM393.585 799.398C395.332 799.213 397.074 799.028 398.821 798.838C397.332 799.705 395.826 800.591 394.357 801.475C392.752 801.67 391.157 801.864 389.561 802.057C387.945 802.254 386.329 802.45 384.704 802.647L388.894 799.899C390.467 799.729 392.028 799.563 393.585 799.398ZM407.412 797.934C408.306 797.839 409.197 797.743 410.08 797.65C409.492 797.967 408.899 798.285 408.303 798.604C407.37 799.104 406.431 799.606 405.499 800.115C404.001 800.292 402.495 800.478 400.984 800.664C399.364 800.863 397.739 801.064 396.113 801.254C396.839 800.822 397.575 800.388 398.31 799.955C399.046 799.522 399.781 799.089 400.507 798.656C402.807 798.427 405.123 798.179 407.412 797.934ZM418.249 796.742C419.289 796.624 420.329 796.505 421.371 796.388C421.062 796.539 420.752 796.69 420.44 796.842C419.174 797.457 417.892 798.081 416.623 798.738C415.614 798.864 414.608 798.99 413.603 799.116C411.569 799.371 409.535 799.626 407.469 799.882C408.215 799.466 408.974 799.063 409.733 798.66C410.493 798.257 411.252 797.853 411.997 797.438C414.092 797.216 416.171 796.979 418.249 796.742ZM423.5 796.129C426.501 795.804 429.519 795.46 432.501 795.118C431.63 795.529 430.752 795.925 429.878 796.318C429.162 796.641 428.449 796.962 427.743 797.29C424.782 797.684 421.838 798.06 418.857 798.437C419.824 797.949 420.799 797.467 421.767 796.988C422.348 796.701 422.927 796.415 423.5 796.129ZM439.175 794.36C440.622 794.191 442.068 794.023 443.524 793.854C441.9 794.532 440.276 795.211 438.616 795.891C437.069 796.095 435.493 796.296 433.909 796.498C432.66 796.657 431.406 796.816 430.156 796.979C431.441 796.391 432.751 795.801 434.036 795.222L434.827 794.866C436.282 794.697 437.729 794.528 439.175 794.36ZM446.168 793.548L454.473 792.558C453.669 792.87 452.86 793.178 452.05 793.485C451.241 793.793 450.432 794.101 449.627 794.413L449.625 794.413C446.895 794.777 444.165 795.141 441.418 795.523C442.204 795.194 442.998 794.865 443.793 794.536C444.588 794.207 445.383 793.877 446.168 793.548ZM463.699 791.466C464.187 791.409 464.673 791.351 465.157 791.294C463.596 791.826 462.019 792.377 460.477 792.926C457.925 793.28 455.372 793.634 452.8 793.971C454.323 793.406 455.899 792.819 457.42 792.218C459.516 791.959 461.625 791.71 463.699 791.466ZM472.208 790.399C473.423 790.243 474.638 790.087 475.854 789.941C474.332 790.433 472.776 790.928 471.219 791.422L471.202 791.428C468.827 791.772 466.452 792.116 464.023 792.446C464.898 792.128 465.785 791.822 466.667 791.518C467.304 791.298 467.938 791.079 468.563 790.858C469.778 790.711 470.993 790.555 472.208 790.399ZM483.215 789.012C484.212 788.887 485.206 788.763 486.196 788.642C485.008 789.009 483.793 789.352 482.596 789.69C482.377 789.752 482.159 789.814 481.941 789.875C480.809 790.043 479.66 790.206 478.508 790.37C477.515 790.511 476.518 790.653 475.525 790.798C476.219 790.572 476.93 790.346 477.641 790.12C478.352 789.893 479.063 789.667 479.756 789.441C480.914 789.301 482.067 789.157 483.215 789.012ZM492.724 787.82C493.901 787.661 495.07 787.503 496.253 787.359C495.403 787.597 494.528 787.829 493.64 788.064C493.206 788.179 492.768 788.295 492.328 788.413C491.147 788.597 489.95 788.766 488.753 788.935C488.154 789.019 487.555 789.103 486.958 789.19C487.483 789.033 488.011 788.88 488.537 788.727C489.262 788.516 489.982 788.307 490.685 788.093C491.37 788.003 492.048 787.911 492.724 787.82ZM504.18 786.318C504.956 786.217 505.732 786.117 506.504 786.012C505.516 786.245 504.512 786.496 503.56 786.727C502.686 786.853 501.818 786.984 500.955 787.115C500.243 787.222 499.534 787.329 498.829 787.432C499.43 787.26 500.044 787.1 500.652 786.942C501.059 786.836 501.462 786.731 501.857 786.624C502.628 786.519 503.404 786.418 504.18 786.318ZM513.906 785.026C514.328 784.972 514.749 784.917 515.157 784.859L513.692 785.172C513.276 785.239 512.855 785.302 512.435 785.366C512.014 785.429 511.593 785.492 511.177 785.56C511.688 785.442 512.164 785.327 512.657 785.193C513.064 785.135 513.485 785.08 513.906 785.026ZM1020.63 531.788C1026.02 638.396 927.183 719.434 587.894 773.5C919.255 713.277 1011.78 625.529 1004.93 512.125C1002.2 467.244 983.917 418.375 958.683 365.618C992.811 426.516 1018.1 481.967 1020.63 531.788ZM532.547 781.782C532.095 781.842 531.642 781.903 531.199 781.963C894.227 698.197 972.147 579.579 957.954 431.246C954.809 398.285 947.103 363.876 936.997 328.063C938.514 330.641 940.03 333.22 941.528 335.781C957.331 380.732 969.144 423.257 972.479 463.299C983.794 599.501 896.648 706.87 533.894 781.601C533.451 781.661 532.999 781.721 532.547 781.782ZM521.789 783.25C520.682 783.41 519.576 783.57 518.452 783.714C894.098 689.005 961.116 555.57 943.074 390.443C940.472 366.74 936.137 342.364 930.696 317.369C932.329 320.12 933.962 322.871 935.576 325.604C946.053 362.326 954.037 397.559 957.258 431.267C971.51 580.329 892.555 699.306 523.451 783.012C522.896 783.09 522.342 783.17 521.789 783.25ZM510.449 784.802C509.258 784.961 508.057 785.119 506.857 785.278C921.354 671.026 955.239 507.593 924.4 306.783C925.141 308.032 925.884 309.277 926.626 310.521C927.601 312.154 928.574 313.784 929.535 315.415C935.193 341.112 939.708 366.157 942.363 390.518C960.471 556.177 892.735 689.883 512.354 784.549C511.723 784.633 511.087 784.718 510.449 784.802ZM498.238 786.411C497.169 786.554 496.101 786.698 495.028 786.837C894.482 666.656 936.521 498.812 918.145 296.265L918.154 296.282C919.903 299.235 921.651 302.188 923.416 305.122C954.771 507.208 921.415 671.487 501.447 785.985C500.374 786.124 499.306 786.268 498.238 786.411ZM490.363 787.431C488.058 787.736 485.698 788.026 483.338 788.316C867.643 662.214 917.764 489.961 911.832 285.697L913.721 288.88L917.281 294.848C936.001 498.447 894.305 667.006 490.363 787.431ZM479.436 788.816L471.684 789.794C840.82 657.752 899.024 481.092 905.505 275.184C906.612 277.019 907.713 278.861 908.81 280.698C909.564 281.959 910.316 283.218 911.069 284.471C917.225 489.58 867.301 662.482 479.436 788.816ZM463.159 790.823C462.132 790.948 461.1 791.074 460.061 791.198C814.031 653.253 880.3 472.204 899.191 264.58C900.31 266.446 901.423 268.319 902.533 270.186C903.295 271.469 904.056 272.75 904.817 274.025C898.468 480.729 840.386 657.972 468.259 790.213C466.563 790.407 464.867 790.614 463.159 790.823ZM448.516 792.562L448.508 792.563C787.312 648.714 861.627 463.259 892.911 253.939C894.802 257.158 896.691 260.341 898.58 263.524C879.742 471.805 813.539 653.387 457.115 791.538C454.261 791.89 451.389 792.226 448.516 792.562ZM438.496 793.739C437.96 793.803 437.423 793.867 436.883 793.932C760.611 644.192 842.954 454.314 886.647 243.279C887.789 245.242 888.943 247.192 890.094 249.137C890.851 250.415 891.607 251.692 892.357 252.969C861.053 462.88 786.781 648.814 445.899 792.866C443.418 793.149 440.973 793.442 438.496 793.739ZM434.54 794.203C431.487 794.549 428.398 794.896 425.309 795.244C733.994 639.576 824.313 445.297 880.381 232.583C881.523 234.566 882.678 236.536 883.829 238.5C884.588 239.795 885.346 241.087 886.098 242.38C842.38 453.935 760.024 644.242 434.54 794.203ZM423.197 795.485L413.61 796.545C707.378 634.96 805.724 436.258 874.129 221.798C876.042 225.105 877.956 228.411 879.851 231.701C823.74 444.953 733.353 639.611 423.197 795.485ZM411.728 796.756C408.496 797.111 405.194 797.471 401.908 797.811C680.795 630.307 787.169 427.182 867.945 210.973C869.132 213.074 870.325 215.153 871.515 217.229C872.23 218.475 872.943 219.719 873.655 220.966C805.15 435.879 706.735 634.96 411.728 796.756ZM395.2 798.527C393.519 798.704 391.837 798.881 390.152 799.062C654.245 625.616 768.647 418.068 861.831 200.108C862.781 201.789 863.729 203.46 864.678 205.132C865.627 206.804 866.576 208.476 867.526 210.156C786.611 426.784 680.168 630.288 400.257 797.991C398.568 798.173 396.884 798.35 395.2 798.527ZM388.589 799.219C385.161 799.568 381.768 799.914 378.323 800.281C627.713 620.906 750.174 408.863 855.728 189.118C857.593 192.517 859.477 195.932 861.359 199.312C768.054 417.672 653.548 625.601 388.589 799.219ZM371.516 800.967C369.854 801.131 368.188 801.295 366.527 801.463C601.266 616.138 731.79 399.635 849.73 178.086C851.578 181.504 853.445 184.938 855.31 188.337C749.617 408.465 627.013 620.855 376.902 800.431C375.118 800.612 373.319 800.789 371.516 800.967ZM361.644 801.964C359.333 802.197 357.022 802.431 354.679 802.665C574.837 611.351 713.438 390.369 843.749 167.036C845.58 170.472 847.43 173.925 849.278 177.343C731.178 399.222 600.513 616.072 365.178 801.608C363.997 801.727 362.821 801.846 361.644 801.964ZM342.741 803.819L342.739 803.819C548.37 606.531 695.155 381.028 837.921 155.852C839.737 159.342 841.552 162.798 843.385 166.27C712.862 389.954 574.083 611.286 353.453 802.786C349.919 803.14 346.33 803.48 342.741 803.819ZM832.661 143.958L840.104 133.083C841.671 136.588 843.274 140.09 844.893 143.574L838.004 154.436C836.206 150.962 834.425 147.469 832.661 143.958ZM844.29 126.939C845.532 125.128 846.774 123.316 848.008 121.505C849.38 125.038 850.786 128.533 852.209 132.01L845.353 142.834C843.733 139.351 842.149 135.865 840.582 132.361C841.812 130.554 843.051 128.747 844.29 126.939ZM852.234 115.352C853.479 113.538 854.724 111.724 855.964 109.906C857.139 113.432 858.315 116.957 859.507 120.465L859.474 120.502L852.668 131.27C852.324 130.408 851.979 129.545 851.634 128.68C850.586 126.059 849.535 123.429 848.505 120.799C849.745 118.981 850.99 117.167 852.234 115.352ZM860.182 103.745C861.422 101.935 862.663 100.126 863.904 98.3253C864.882 101.844 865.861 105.363 866.856 108.863L860.001 119.687L859.992 119.664C858.803 116.164 857.613 112.665 856.459 109.164C857.7 107.364 858.941 105.554 860.182 103.745ZM871.849 86.7808L871.862 86.7617C872.625 90.2566 873.407 93.7683 874.222 97.2424L867.383 108.048C867.11 107.075 866.836 106.101 866.562 105.125C865.853 102.609 865.143 100.087 864.451 97.563C866.894 93.9702 869.371 90.3755 871.849 86.7808ZM872.425 85.945C874.89 82.3627 877.372 78.7616 879.837 75.1794C880.404 78.6671 880.97 82.1549 881.59 85.6575L874.766 96.4089C873.967 92.916 873.188 89.4399 872.425 85.945ZM880.434 74.3251C882.899 70.7428 885.381 67.1417 887.846 63.5594C888.199 67.0589 888.551 70.5584 888.956 74.0371L882.166 84.7509L882.165 84.7482C881.582 81.2801 881 77.812 880.434 74.3251ZM892.148 57.3045C893.381 55.5222 894.614 53.74 895.839 51.9583C895.994 55.4507 896.166 58.9243 896.339 62.3979C895.205 64.1729 894.075 65.9522 892.946 67.7314C891.814 69.5143 890.683 71.2972 889.546 73.076L889.542 73.0367C889.174 69.5691 888.807 66.1016 888.458 62.6508C889.682 60.869 890.915 59.0868 892.148 57.3045ZM903.862 40.3992L903.868 40.3908L903.738 50.7399C901.503 54.2917 899.25 57.8266 896.996 61.3615C896.826 57.9236 896.672 54.4668 896.519 51.01C898.965 47.4494 901.414 43.9243 903.862 40.3992ZM904.578 39.3338L911.879 28.8064C911.656 32.2303 911.414 35.6373 911.171 39.0443L904.461 49.5928C904.49 46.1975 904.533 42.7479 904.578 39.3338ZM912.692 27.6723C915.092 24.2007 917.509 20.7105 919.928 17.2558C919.745 18.7192 919.559 20.1795 919.372 21.6423C919.128 23.5591 918.883 25.4801 918.644 27.418C917.531 29.1517 916.419 30.8943 915.307 32.637C914.198 34.3739 913.09 36.1109 911.981 37.839C912.206 34.4508 912.431 31.0625 912.692 27.6723ZM920.84 15.9734L927.995 5.72198C927.355 9.04358 926.734 12.382 926.13 15.7016C925.036 17.4137 923.937 19.1305 922.839 20.8474C921.741 22.5642 920.643 24.281 919.548 25.9931C919.76 24.3228 919.977 22.6566 920.193 20.9905C920.41 19.3195 920.627 17.6486 920.84 15.9734ZM328.407 807.435C328.947 806.861 329.487 806.286 330.036 805.711C333.644 805.389 337.198 805.051 340.733 804.697C339.598 805.813 338.443 806.912 337.289 808.011L336.435 808.106C333.227 808.462 330.04 808.816 326.777 809.158C327.326 808.584 327.867 808.009 328.407 807.435ZM330.762 804.939C514.07 610.034 664.096 390.552 812.963 172.74C815.193 169.475 817.425 166.212 819.658 162.949C823.833 156.845 828.01 150.738 832.179 144.609C832.668 145.568 833.156 146.529 833.646 147.492C834.94 150.035 836.236 152.584 837.54 155.104C694.576 380.577 547.614 606.429 341.583 803.9C337.976 804.258 334.387 804.598 330.762 804.939Z" fill="#FF6600" fill-opacity="0.15"/>
</svg>
